<?xml version="1.0" encoding="UTF-8" standalone="no"?>
<svg
   xmlns:dc="http://purl.org/dc/elements/1.1/"
   xmlns:cc="http://creativecommons.org/ns#"
   xmlns:rdf="http://www.w3.org/1999/02/22-rdf-syntax-ns#"
   xmlns:svg="http://www.w3.org/2000/svg"
   xmlns="http://www.w3.org/2000/svg"
   viewBox="0 0 874.98749 678.41248"
   height="678.41248"
   width="874.98749"
   xml:space="preserve"
   version="1.1"
   id="svg2"><metadata
     id="metadata8"><rdf:RDF><cc:Work
         rdf:about=""><dc:format>image/svg+xml</dc:format><dc:type
           rdf:resource="http://purl.org/dc/dcmitype/StillImage" /></cc:Work></rdf:RDF></metadata><defs
     id="defs6" /><g
     transform="matrix(1.25,0,0,-1.25,0,678.4125)"
     id="g10"><g
       transform="scale(0.1,0.1)"
       id="g12"><path
         id="path14"
         style="fill:#393536;fill-opacity:1;fill-rule:nonzero;stroke:none"
         d="m 2168.08,5357.6 c 0,-38.52 -31.23,-69.74 -69.74,-69.74 -38.52,0 -69.75,31.22 -69.75,69.74 0,38.52 31.23,69.74 69.75,69.74 38.51,0 69.74,-31.22 69.74,-69.74" /><path
         id="path16"
         style="fill:#231f20;fill-opacity:1;fill-rule:nonzero;stroke:none"
         d="m 239.984,4206.82 c 0,0 269.27,-175.02 201.95,-424.09 0,0 753.956,20.18 1016.506,-208.7 0,0 794.34,148.09 1218.45,0 0,0 659.18,289.47 1029.98,249.07 0,0 181.86,215.06 389.59,305.75 0,0 -1784.76,2071.46 -3856.476,77.97" /><path
         id="path18"
         style="fill:#393536;fill-opacity:1;fill-rule:nonzero;stroke:none"
         d="m 239.984,4206.82 c 0,0 749.133,444.29 1003.996,350.06 0,0 651.43,243.91 1695.4,15.36 0,0 772.14,-53.2 1070.42,-365.42 187.45,-196.22 26.92,0 26.92,0 0,0 -451.02,780.89 -1319.43,908.8 0,0 -161.28,242.33 -602.36,262.54 0,0 -319.9,20.2 -575.71,-201.95 0,0 -861.665,-161.57 -1299.236,-969.39" /><path
         id="path20"
         style="fill:#6f4323;fill-opacity:1;fill-rule:nonzero;stroke:none"
         d="m 2064.12,2247.86 50.8086,0 0,2419.75 -50.8086,0 0,-2419.75 z" /><path
         id="path22"
         style="fill:#5a3114;fill-opacity:1;fill-rule:nonzero;stroke:none"
         d="m 1883.29,2080.44 c -96.48,0 -147.12,41.4 -172.6,76.11 -47.86,65.22 -53.05,163.67 -15,284.73 l 76.32,-23.99 c -29.24,-93.03 -28.08,-170.82 3.17,-213.4 21.16,-28.83 57.53,-43.45 108.11,-43.45 164.35,0 166.24,109.74 166.24,114.41 l 0,226.66 80,0 0,-226.66 c 0,-1.94 -2.82,-194.41 -246.24,-194.41" /><path
         id="path24"
         style="fill:#5a3114;fill-opacity:1;fill-rule:nonzero;stroke:none"
         d="m 2049.77,2493.21 79.7031,0 0,212.531 -79.7031,0 0,-212.531 z" /><path
         id="path26"
         style="fill:#231f20;fill-opacity:1;fill-rule:nonzero;stroke:none"
         d="m 2021.12,5338.5 c -40.96,-16.2 -80.12,-36.26 -117.92,-58.47 -37.93,-21.97 -74.55,-46.08 -110.06,-71.63 -70.88,-51.35 -137.23,-108.77 -198.43,-171.25 -61.48,-62.23 -117.8,-129.52 -169.84,-200.03 -51.82,-70.7 -99.49,-144.6 -143.51,-220.94 37.11,79.92 80.64,157.12 130.79,229.97 49.91,73.01 106.28,141.74 168.31,205.02 62.27,63.01 130.19,120.64 203.79,169.99 73.52,49.07 152.33,91.76 236.87,117.34" /><path
         id="path28"
         style="fill:#231f20;fill-opacity:1;fill-rule:nonzero;stroke:none"
         d="m 2188.84,5338.5 c 69.76,-26.48 135.4,-63.62 196.86,-106.33 61.54,-42.74 118.56,-92.13 170.02,-146.8 51.18,-54.92 96.72,-115.28 134.01,-180.41 37.56,-64.93 66.63,-134.63 86.09,-206.58 -26.86,69.51 -60.28,135.94 -99.47,198.54 -39.4,62.46 -84.69,121.05 -135.22,174.79 -50.27,53.98 -105.7,103.14 -164.57,147.88 -29.51,22.27 -59.85,43.54 -91.14,63.42 -31.1,20.22 -63.33,38.72 -96.58,55.49" /><path
         id="path30"
         style="fill:#393536;fill-opacity:1;fill-rule:nonzero;stroke:none"
         d="m 3373.91,138.203 c 0,-36.453 -20.09,-66.0077 -44.83,-66.0077 -24.77,0 -44.84,29.5547 -44.84,66.0077 0,36.453 20.07,66.008 44.84,66.008 24.74,0 44.83,-29.555 44.83,-66.008" /><path
         id="path32"
         style="fill:#231f20;fill-opacity:1;fill-rule:nonzero;stroke:none"
         d="m 2683.98,2170.94 631,356.01 195.58,-115.32 305.4,-285.45 -588.38,-456.21 c 0,0 -268.62,112.99 -272.88,117.24 -4.25,4.27 -270.72,383.73 -270.72,383.73" /><path
         id="path34"
         style="fill:#6f4323;fill-opacity:1;fill-rule:nonzero;stroke:none"
         d="m 3294.98,1889.54 40,0 0,925.207 -40,0 0,-925.207 z" /><path
         id="path36"
         style="fill:#393536;fill-opacity:1;fill-rule:nonzero;stroke:none"
         d="m 3327.78,90.2734 -690.71,2072.1366 507.37,255.82 c 0,0 -451.96,-247.29 -422.1,-302.72 29.85,-55.42 443.41,260.1 443.41,260.1 0,0 -264.35,-260.1 -225.97,-366.68 38.37,-106.59 268.61,302.72 277.14,353.87 0,0 12.79,-486.03 76.75,-392.25 0,0 51.14,319.79 17.04,392.25 0,0 132.2,-370.94 234.52,-387.98 0,0 -93.82,375.21 -132.19,405.03 0,0 183.35,-264.34 353.89,-251.54 0,0 -186.54,172.01 -280.21,297.69 l 374,-225.2 L 3327.78,90.2734" /><path
         id="path38"
         style="fill:#5a3114;fill-opacity:1;fill-rule:nonzero;stroke:none"
         d="m 3354.98,2593.05 -80,0 0,623.18 c -8.45,18.5 -42.09,78.7 -122.03,78.7 -12.04,0 -21.27,-4.07 -29.95,-13.21 -39.39,-41.48 -42.84,-155.39 -40.95,-192.02 l -79.89,-4.13 c -0.93,17.97 -7.06,177.64 62.83,251.23 23.68,24.94 54.09,38.13 87.96,38.13 150.39,0 197.87,-132.15 199.82,-137.77 l 2.21,-6.36 0,-637.75" /><path
         id="path40"
         style="fill:#231f20;fill-opacity:1;fill-rule:nonzero;stroke:none"
         d="m 2929.7,1951.89 c 11.33,-71.82 24.23,-143.34 38.31,-214.62 13.58,-71.37 27.97,-142.59 43.15,-213.64 30.15,-142.13 61.26,-284.05 95.16,-425.35 32.36,-141.651 67.43,-282.675 102.37,-423.749 l 106.29,-423 c -21.8,69.387 -42.06,139.223 -62.62,208.977 -19.94,69.93 -39.4,140 -58.56,210.156 -38.05,140.391 -73.01,281.602 -106.93,423.066 -32.32,141.84 -63.76,283.91 -90.73,426.89 -13.36,71.52 -26.12,143.15 -37.73,214.97 -10.85,71.92 -21.84,143.87 -28.71,216.3" /><path
         id="path42"
         style="fill:#231f20;fill-opacity:1;fill-rule:nonzero;stroke:none"
         d="m 3717.11,1970.16 c -6.86,-72.43 -17.86,-144.38 -28.71,-216.3 -11.6,-71.82 -24.38,-143.45 -37.74,-214.97 -26.96,-142.97 -58.41,-285.05 -90.73,-426.89 -33.91,-141.461 -68.87,-282.672 -106.92,-423.066 -19.17,-70.157 -38.63,-140.223 -58.56,-210.157 -20.57,-69.754 -40.82,-139.589 -62.62,-208.972 l 106.29,422.996 c 34.93,141.078 70.01,282.101 102.36,423.749 33.91,141.3 65.02,283.22 95.18,425.35 15.16,71.05 29.55,142.27 43.14,213.64 14.08,71.28 26.98,142.8 38.31,214.62" /><path
         id="path44"
         style="fill:#231f20;fill-opacity:1;fill-rule:nonzero;stroke:none"
         d="m 3278.4,1889.54 c 6.91,-123.95 12.55,-247.93 16.92,-371.94 4.64,-124.01 8.11,-248.05 11.36,-372.09 2.87,-124.05 5.5,-248.108 6.95,-372.19 1.75,-124.082 2.19,-248.191 1.35,-372.336 -6.94,123.957 -12.59,247.934 -16.95,371.946 -4.64,124.011 -8.11,248.05 -11.33,372.09 -2.85,124.05 -5.47,248.1 -6.92,372.19 -1.74,124.08 -2.19,248.19 -1.38,372.33" /><path
         id="path46"
         style="fill:#e8e740;fill-opacity:1;fill-rule:nonzero;stroke:none"
         d="m 4903.9,3761.75 -146.94,-263.8 -207.44,-619.11 -199.65,-1730.66 454.97,-129.42 211.42,1602.08 -112.36,1140.91" /><path
         id="path48"
         style="fill:#e8e740;fill-opacity:1;fill-rule:nonzero;stroke:none"
         d="m 6515.87,3761.75 146.93,-263.8 207.45,-619.11 129.64,-1659.34 -429.82,-184.04 -166.56,1585.38 112.36,1140.91" /><path
         id="path50"
         style="fill:#f2f143;fill-opacity:1;fill-rule:nonzero;stroke:none"
         d="m 6139.88,3947.55 -337.08,-698.35 -69.15,-890.72 0,-1303.96 -43.21,-1035.3091 c 0,0 674.17,-43.2148 821.1,0 l 60.51,1668.1491 -34.57,1010.9 164.22,928.68 -397.59,320.61 -108.04,64.86 -56.19,-64.86" /><path
         id="path52"
         style="fill:#f2f143;fill-opacity:1;fill-rule:nonzero;stroke:none"
         d="m 5396.56,4012.41 458.1,-763.21 -121.01,-3195.4109 -380.3,0 -553.17,60.4959 -43.22,1342.925 181.51,1072.88 -77.79,842.71 43.22,388.95 492.66,250.66" /><path
         id="path54"
         style="fill:#f2f143;fill-opacity:1;fill-rule:nonzero;stroke:none"
         d="m 5379.28,3856.82 -138.3,613.68 285.23,501.31 207.44,242.01 216.08,0 311.16,-726.03 0,-242.01 -406.23,-996.58 -475.38,607.62" /><path
         id="path56"
         style="fill:#b2b131;fill-opacity:1;fill-rule:nonzero;stroke:none"
         d="m 5802.8,3497.95 -302.52,449.6 0,445.16 250.66,172.86 172.86,0 121.02,-181.5 -43.23,-436.52 -198.79,-449.6" /><path
         id="path58"
         style="fill:#b2b131;fill-opacity:1;fill-rule:nonzero;stroke:none"
         d="m 5854.66,3356.64 c -1.7,-124.78 -4.68,-249.52 -6.99,-374.28 l -4.52,-187.1 -2.27,-93.55 -6.06,-93.67 -52.35,-746.18 c -4.37,-249.5 -7.88,-499.01 -13.07,-748.5 l -8.17,-374.219 c -3.46,-124.739 -6.23,-249.473 -10.29,-374.2 -0.47,124.786 0.35,249.563 0.49,374.336 l 2.59,374.313 c 2,249.52 5.67,499.04 8.48,748.56 l 28.15,373.83 c 9.6,124.39 18.55,248.84 28.9,373.18 l 7.38,92.99 3.66,93.51 7.34,187.02 c 5.6,124.65 10.53,249.32 16.73,373.96" /><path
         id="path60"
         style="fill:#b2b131;fill-opacity:1;fill-rule:nonzero;stroke:none"
         d="m 5781.98,3048.07 c 0,-24.3 -19.69,-44 -44,-44 -24.31,0 -44,19.7 -44,44 0,24.31 19.69,44.02 44,44.02 24.31,0 44,-19.71 44,-44.02" /><path
         id="path62"
         style="fill:#b2b131;fill-opacity:1;fill-rule:nonzero;stroke:none"
         d="m 5734.45,2508.48 c 0,-24.3 -19.7,-44.01 -44.01,-44.01 -24.31,0 -44,19.71 -44,44.01 0,24.3 19.69,44.01 44,44.01 24.31,0 44.01,-19.71 44.01,-44.01" /><path
         id="path64"
         style="fill:#b2b131;fill-opacity:1;fill-rule:nonzero;stroke:none"
         d="m 5646.45,1127.48 c 0,-24.31 -19.71,-44 -44.02,-44 -24.29,0 -44,19.69 -44,44 0,24.31 19.71,44 44,44 24.31,0 44.02,-19.69 44.02,-44" /><path
         id="path66"
         style="fill:#b2b131;fill-opacity:1;fill-rule:nonzero;stroke:none"
         d="m 5690.44,1860.79 c 0,-24.31 -19.7,-44 -44,-44 -24.31,0 -44.01,19.69 -44.01,44 0,24.31 19.7,44 44.01,44 24.3,0 44,-19.69 44,-44" /><path
         id="path68"
         style="fill:#b2b131;fill-opacity:1;fill-rule:nonzero;stroke:none"
         d="m 5646.45,460.02 c 0,-24.297 -19.71,-44.004 -44.02,-44.004 -24.29,0 -44,19.707 -44,44.004 0,24.304 19.71,44.011 44,44.011 24.31,0 44.02,-19.707 44.02,-44.011" /><path
         id="path70"
         style="fill:#2e2a2b;fill-opacity:1;fill-rule:nonzero;stroke:none"
         d="m 1894.57,770.059 c 0,0 0.77,-44.571 0.77,-97.032 0,0 -409.63,-253.117 -1055.074,-30.89 l -55.981,46.32 95.676,114.188 614.159,-55.547 400.45,22.961" /><path
         id="path72"
         style="fill:#322f30;fill-opacity:1;fill-rule:nonzero;stroke:none"
         d="m 1240.61,2823.54 c 0,0 -33.5,-1277.11 56,-1635.11 89.5,-358.008 456.77,-305.539 546.27,-305.539 0,0 52.46,-61.727 52.46,-126.536 0,0 -296.28,-197.527 -623.42,-141.972 -327.143,55.558 -419.732,74.074 -419.732,74.074 l -21.606,-83.926 c 0,0 -151.227,-17.922 -212.949,31.453 l 0,185.18 18.515,197.516 c 0,0 18.516,274.68 -18.515,419.74 -37.035,145.04 -200.61,1274.62 -175.918,1342.52 0,0 276.875,63.61 798.895,42.6" /><path
         id="path74"
         style="fill:#272324;fill-opacity:1;fill-rule:nonzero;stroke:none"
         d="m 465.375,2762.42 c 0,0 259.25,65.84 748.935,47.32 0,0 -399.158,-111.11 -748.935,-47.32" /><path
         id="path76"
         style="fill:#2e2a2b;fill-opacity:1;fill-rule:nonzero;stroke:none"
         d="m 1455.38,324.129 c 0,0 0.77,-44.57 0.77,-97.031 0,0 -409.63,-253.1136 -1055.076,-30.887 l -55.976,46.316 95.675,114.192 614.167,-55.559 400.44,22.969" /><path
         id="path78"
         style="fill:#393536;fill-opacity:1;fill-rule:nonzero;stroke:none"
         d="m 801.422,2377.62 c 0,0 -33.508,-1277.11 55.996,-1635.12 89.5,-358.008 456.762,-305.535 546.272,-305.535 0,0 52.46,-61.731 52.46,-126.543 0,0 -296.27,-197.524 -623.42,-141.965 -327.144,55.555 -419.734,74.07 -419.734,74.07 l -21.605,-83.925 c 0,0 -151.227,-17.918 -212.95,31.457 l 0,185.175 18.516,197.52 c 0,0 18.516,274.676 -18.516,419.734 C 141.406,1137.54 -22.168,2267.11 2.52344,2335.01 c 0,0 276.87456,63.6 798.89856,42.61" /><path
         id="path80"
         style="fill:#272324;fill-opacity:1;fill-rule:nonzero;stroke:none"
         d="m 26.1875,2316.48 c 0,0 259.2465,65.85 748.9335,47.33 0,0 -399.16,-111.11 -748.9335,-47.33" /></g></g></svg>