<?xml version="1.0" standalone="yes"?>

<svg version="1.1" viewBox="0.0 0.0 256.0 183.0" fill="none" stroke="none" stroke-linecap="square" stroke-miterlimit="10" xmlns="http://www.w3.org/2000/svg" xmlns:xlink="http://www.w3.org/1999/xlink"><clipPath id="p.0"><path d="m0 0l256.0 0l0 183.0l-256.0 0l0 -183.0z" clip-rule="nonzero"></path></clipPath><g clip-path="url(#p.0)"><path fill="#000000" fill-opacity="0.0" d="m0 0l256.46194 0l0 183.51443l-256.46194 0z" fill-rule="nonzero"></path><path fill="#ffffff" d="m79.55155 49.143055l0 0c-0.6406784 -4.565819 1.4627838 -9.085701 5.4178085 -11.641697c3.9550247 -2.555996 9.067986 -2.6998367 13.169266 -0.3704872l0 0c1.4527969 -2.6547546 4.1118393 -4.4876823 7.172821 -4.944351c3.0609818 -0.45667267 6.1643753 0.51654816 8.371468 2.6252823l0 0c1.2375946 -2.406971 3.6676407 -4.024151 6.4278183 -4.2776756c2.7601852 -0.25352478 5.459877 0.89248466 7.141083 3.0313644l0 0c2.2359009 -2.5513859 5.793274 -3.6256256 9.132828 -2.7578888c3.3395538 0.8677349 5.8614655 3.521595 6.4745026 6.8132324l0 0c2.7393494 0.72460556 5.021179 2.5666466 6.2559204 5.0501976c1.2347412 2.483551 1.3012848 5.3649826 0.18241882 7.899822l0 0c2.6974792 3.4045715 3.328476 7.94112 1.657547 11.916691c-1.6709442 3.9755669 -5.3927765 6.7928734 -9.776596 7.4005394c-0.030899048 3.7312164 -2.141037 7.15493 -5.5170746 8.9515c-3.3760529 1.7965698 -7.490814 1.6854553 -10.7582855 -0.2905197c-1.3917694 4.468773 -5.309143 7.756851 -10.059662 8.443665c-4.7505264 0.686821 -9.482567 -1.3507538 -12.151726 -5.2324142c-3.27182 1.9132843 -7.1977386 2.4644394 -10.892143 1.5291367c-3.6944046 -0.9352951 -6.846092 -3.278267 -8.74411 -6.5003815l0 0c-3.3433914 0.37941742 -6.575989 -1.3004074 -8.093468 -4.20578c-1.517479 -2.9053726 -0.9968033 -6.417801 1.3036194 -8.79409l0 0c-2.9823914 -1.7022591 -4.5041885 -5.080105 -3.7718277 -8.372124c0.7323532 -3.292019 3.5529099 -5.752228 6.99086 -6.097725z" fill-rule="nonzero"></path><path fill="#000000" fill-opacity="0.0" d="m76.26643 63.788876l0 0c1.407402 0.80330276 3.0332794 1.1676979 4.6593323 1.0442619m2.1297836 11.955902c0.6992645 -0.07935333 1.3846741 -0.24739838 2.038559 -0.49978638m17.596718 5.4708176c-0.4918213 -0.7152252 -0.903595 -1.4795151 -1.2283096 -2.279831m23.440544 -0.9315567l0 0c0.2537384 -0.81472015 0.4181366 -1.6532516 0.49046326 -2.5015945m15.7842865 -6.1590652c0.03288269 -3.9724503 -2.293747 -7.6096687 -5.9805756 -9.349361m14.099548 -9.967453c-0.59706116 1.3526955 -1.5085602 2.5526543 -2.6630096 3.505787m-3.7747803 -16.456161l0 0c0.10173035 0.5462494 0.14880371 1.100708 0.14059448 1.655693m-15.747658 -5.7108727l0 0c-0.55773926 0.6364441 -1.0172501 1.3476601 -1.3642197 2.1115074m-12.204811 -0.8654709l0 0c-0.29723358 0.5780754 -0.5191803 1.1897812 -0.6607437 1.821022m-14.883774 0.49809265l0 0c0.86782837 0.4928894 1.6706848 1.0861359 2.3909378 1.7667046m-20.977768 10.245544l0 0c0.08830261 0.6292877 0.22782135 1.2508163 0.4172516 1.8587723" fill-rule="nonzero"></path><path stroke="#ffffff" stroke-width="1.0" stroke-linejoin="round" stroke-linecap="butt" d="m79.55155 49.143055l0 0c-0.6406784 -4.565819 1.4627838 -9.085701 5.4178085 -11.641697c3.9550247 -2.555996 9.067986 -2.6998367 13.169266 -0.3704872l0 0c1.4527969 -2.6547546 4.1118393 -4.4876823 7.172821 -4.944351c3.0609818 -0.45667267 6.1643753 0.51654816 8.371468 2.6252823l0 0c1.2375946 -2.406971 3.6676407 -4.024151 6.4278183 -4.2776756c2.7601852 -0.25352478 5.459877 0.89248466 7.141083 3.0313644l0 0c2.2359009 -2.5513859 5.793274 -3.6256256 9.132828 -2.7578888c3.3395538 0.8677349 5.8614655 3.521595 6.4745026 6.8132324l0 0c2.7393494 0.72460556 5.021179 2.5666466 6.2559204 5.0501976c1.2347412 2.483551 1.3012848 5.3649826 0.18241882 7.899822l0 0c2.6974792 3.4045715 3.328476 7.94112 1.657547 11.916691c-1.6709442 3.9755669 -5.3927765 6.7928734 -9.776596 7.4005394c-0.030899048 3.7312164 -2.141037 7.15493 -5.5170746 8.9515c-3.3760529 1.7965698 -7.490814 1.6854553 -10.7582855 -0.2905197c-1.3917694 4.468773 -5.309143 7.756851 -10.059662 8.443665c-4.7505264 0.686821 -9.482567 -1.3507538 -12.151726 -5.2324142c-3.27182 1.9132843 -7.1977386 2.4644394 -10.892143 1.5291367c-3.6944046 -0.9352951 -6.846092 -3.278267 -8.74411 -6.5003815l0 0c-3.3433914 0.37941742 -6.575989 -1.3004074 -8.093468 -4.20578c-1.517479 -2.9053726 -0.9968033 -6.417801 1.3036194 -8.79409l0 0c-2.9823914 -1.7022591 -4.5041885 -5.080105 -3.7718277 -8.372124c0.7323532 -3.292019 3.5529099 -5.752228 6.99086 -6.097725z" fill-rule="nonzero"></path><path stroke="#ffffff" stroke-width="1.0" stroke-linejoin="round" stroke-linecap="butt" d="m76.26643 63.788876l0 0c1.407402 0.80330276 3.0332794 1.1676979 4.6593323 1.0442619m2.1297836 11.955902c0.6992645 -0.07935333 1.3846741 -0.24739838 2.038559 -0.49978638m17.596718 5.4708176c-0.4918213 -0.7152252 -0.903595 -1.4795151 -1.2283096 -2.279831m23.440544 -0.9315567l0 0c0.2537384 -0.81472015 0.4181366 -1.6532516 0.49046326 -2.5015945m15.7842865 -6.1590652c0.03288269 -3.9724503 -2.293747 -7.6096687 -5.9805756 -9.349361m14.099548 -9.967453c-0.59706116 1.3526955 -1.5085602 2.5526543 -2.6630096 3.505787m-3.7747803 -16.456161l0 0c0.10173035 0.5462494 0.14880371 1.100708 0.14059448 1.655693m-15.747658 -5.7108727l0 0c-0.55773926 0.6364441 -1.0172501 1.3476601 -1.3642197 2.1115074m-12.204811 -0.8654709l0 0c-0.29723358 0.5780754 -0.5191803 1.1897812 -0.6607437 1.821022m-14.883774 0.49809265l0 0c0.86782837 0.4928894 1.6706848 1.0861359 2.3909378 1.7667046m-20.977768 10.245544l0 0c0.08830261 0.6292877 0.22782135 1.2508163 0.4172516 1.8587723" fill-rule="nonzero"></path><path fill="#ffffff" d="m147.18745 84.07838l0 0c-0.64068604 -4.565819 1.4627838 -9.085701 5.417801 -11.641701c3.9550323 -2.5559921 9.067993 -2.699829 13.169266 -0.3704834l0 0c1.4528046 -2.6547546 4.111847 -4.4876785 7.172821 -4.944351c3.0609894 -0.45667267 6.164383 0.51654816 8.371475 2.6252823l0 0c1.2375946 -2.4069748 3.667633 -4.024147 6.427826 -4.277672c2.7601776 -0.25352478 5.4598694 0.89247894 7.141083 3.0313568l0 0c2.2358856 -2.551384 5.7932587 -3.625618 9.1328125 -2.7578888c3.3395538 0.8677368 5.8614655 3.5215988 6.4745026 6.81324l0 0c2.7393494 0.72460175 5.021179 2.5666428 6.2559204 5.050194c1.2347565 2.483551 1.3012848 5.3649826 0.18243408 7.899826l0 0c2.697464 3.4045715 3.328476 7.9411163 1.6575317 11.916687c-1.670929 3.9755707 -5.3927765 6.7928696 -9.776596 7.400543c-0.030899048 3.7312088 -2.141037 7.15493 -5.5170746 8.9515c-3.3760376 1.7965698 -7.490814 1.6854477 -10.7582855 -0.29052734c-1.3917694 4.468773 -5.309143 7.756851 -10.059662 8.443672c-4.750519 0.68681335 -9.482559 -1.3507614 -12.151718 -5.2324142c-3.27182 1.9132767 -7.1977386 2.4644318 -10.892151 1.5291367c-3.694397 -0.93530273 -6.8460846 -3.278267 -8.744095 -6.5003815l0 0c-3.343399 0.3794098 -6.576004 -1.300415 -8.093475 -4.2057877c-1.5174866 -2.905365 -0.99679565 -6.417801 1.3036194 -8.79409l0 0c-2.9823914 -1.7022552 -4.504196 -5.080101 -3.7718353 -8.372124c0.73236084 -3.292015 3.5529175 -5.752228 6.99086 -6.0977173z" fill-rule="nonzero"></path><path fill="#000000" fill-opacity="0.0" d="m143.90233 98.7242l0 0c1.4074097 0.80329895 3.0332794 1.1676941 4.6593323 1.0442581m2.1297913 11.955902c0.6992645 -0.07935333 1.3846741 -0.24739075 2.038559 -0.49978638m17.59671 5.470825c-0.49180603 -0.71523285 -0.9035797 -1.4795151 -1.228302 -2.2798386m23.440536 -0.9315491l0 0c0.2537384 -0.8147278 0.41815186 -1.6532516 0.49046326 -2.5015945m15.7842865 -6.159073c0.03289795 -3.9724503 -2.293747 -7.609665 -5.9805603 -9.349358m14.099533 -9.967453c-0.59706116 1.3526993 -1.5085602 2.5526505 -2.6629944 3.5057907m-3.7747955 -16.456161l0 0c0.10173035 0.5462494 0.14881897 1.100708 0.14059448 1.6556854m-15.74765 -5.710869l0 0c-0.55773926 0.6364441 -1.0172577 1.3476639 -1.364212 2.1115112m-12.204819 -0.8654785l0 0c-0.29722595 0.5780792 -0.5191803 1.1897812 -0.66075134 1.821022m-14.883759 0.49810028l0 0c0.8678131 0.4928894 1.6706848 1.0861282 2.3909302 1.7667007m-20.977768 10.245544l0 0c0.08830261 0.6292877 0.22781372 1.2508163 0.4172516 1.8587723" fill-rule="nonzero"></path><path stroke="#ffffff" stroke-width="1.0" stroke-linejoin="round" stroke-linecap="butt" d="m147.18745 84.07838l0 0c-0.64068604 -4.565819 1.4627838 -9.085701 5.417801 -11.641701c3.9550323 -2.5559921 9.067993 -2.699829 13.169266 -0.3704834l0 0c1.4528046 -2.6547546 4.111847 -4.4876785 7.172821 -4.944351c3.0609894 -0.45667267 6.164383 0.51654816 8.371475 2.6252823l0 0c1.2375946 -2.4069748 3.667633 -4.024147 6.427826 -4.277672c2.7601776 -0.25352478 5.4598694 0.89247894 7.141083 3.0313568l0 0c2.2358856 -2.551384 5.7932587 -3.625618 9.1328125 -2.7578888c3.3395538 0.8677368 5.8614655 3.5215988 6.4745026 6.81324l0 0c2.7393494 0.72460175 5.021179 2.5666428 6.2559204 5.050194c1.2347565 2.483551 1.3012848 5.3649826 0.18243408 7.899826l0 0c2.697464 3.4045715 3.328476 7.9411163 1.6575317 11.916687c-1.670929 3.9755707 -5.3927765 6.7928696 -9.776596 7.400543c-0.030899048 3.7312088 -2.141037 7.15493 -5.5170746 8.9515c-3.3760376 1.7965698 -7.490814 1.6854477 -10.7582855 -0.29052734c-1.3917694 4.468773 -5.309143 7.756851 -10.059662 8.443672c-4.750519 0.68681335 -9.482559 -1.3507614 -12.151718 -5.2324142c-3.27182 1.9132767 -7.1977386 2.4644318 -10.892151 1.5291367c-3.694397 -0.93530273 -6.8460846 -3.278267 -8.744095 -6.5003815l0 0c-3.343399 0.3794098 -6.576004 -1.300415 -8.093475 -4.2057877c-1.5174866 -2.905365 -0.99679565 -6.417801 1.3036194 -8.79409l0 0c-2.9823914 -1.7022552 -4.504196 -5.080101 -3.7718353 -8.372124c0.73236084 -3.292015 3.5529175 -5.752228 6.99086 -6.0977173z" fill-rule="nonzero"></path><path stroke="#ffffff" stroke-width="1.0" stroke-linejoin="round" stroke-linecap="butt" d="m143.90233 98.7242l0 0c1.4074097 0.80329895 3.0332794 1.1676941 4.6593323 1.0442581m2.1297913 11.955902c0.6992645 -0.07935333 1.3846741 -0.24739075 2.038559 -0.49978638m17.59671 5.470825c-0.49180603 -0.71523285 -0.9035797 -1.4795151 -1.228302 -2.2798386m23.440536 -0.9315491l0 0c0.2537384 -0.8147278 0.41815186 -1.6532516 0.49046326 -2.5015945m15.7842865 -6.159073c0.03289795 -3.9724503 -2.293747 -7.609665 -5.9805603 -9.349358m14.099533 -9.967453c-0.59706116 1.3526993 -1.5085602 2.5526505 -2.6629944 3.5057907m-3.7747955 -16.456161l0 0c0.10173035 0.5462494 0.14881897 1.100708 0.14059448 1.6556854m-15.74765 -5.710869l0 0c-0.55773926 0.6364441 -1.0172577 1.3476639 -1.364212 2.1115112m-12.204819 -0.8654785l0 0c-0.29722595 0.5780792 -0.5191803 1.1897812 -0.66075134 1.821022m-14.883759 0.49810028l0 0c0.8678131 0.4928894 1.6706848 1.0861282 2.3909302 1.7667007m-20.977768 10.245544l0 0c0.08830261 0.6292877 0.22781372 1.2508163 0.4172516 1.8587723" fill-rule="nonzero"></path><path fill="#ffffff" d="m58.005566 111.55645l0 0c-0.6406746 -4.565819 1.4627876 -9.085701 5.4178123 -11.641693c3.9550247 -2.5559998 9.067986 -2.6998367 13.169258 -0.37049103l0 0c1.4527969 -2.6547546 4.111847 -4.4876785 7.1728287 -4.944351c3.0609818 -0.45667267 6.1643753 0.51654816 8.37146 2.6252823l0 0c1.2376022 -2.4069672 3.6676407 -4.024147 6.427826 -4.277672c2.7601852 -0.25352478 5.459877 0.89247894 7.141083 3.0313644l0 0c2.2359009 -2.5513916 5.793274 -3.6256256 9.13282 -2.7578888c3.3395538 0.8677368 5.8614655 3.5215912 6.4745026 6.8132324l0 0c2.739357 0.72460175 5.021179 2.5666428 6.255928 5.050194c1.2347488 2.483551 1.3012772 5.3649826 0.18242645 7.899826l0 0c2.697464 3.4045715 3.328476 7.9411163 1.6575317 11.916687c-1.6709366 3.9755707 -5.3927765 6.792877 -9.776588 7.400543c-0.030899048 3.7312164 -2.1410446 7.1549225 -5.517082 8.951492c-3.3760452 1.7965698 -7.4908066 1.6854553 -10.7582855 -0.29051208c-1.3917694 4.4687653 -5.3091354 7.756851 -10.059662 8.443665c-4.750519 0.68681335 -9.482567 -1.3507538 -12.151718 -5.232422c-3.2718277 1.9132843 -7.1977386 2.464447 -10.892143 1.5291443c-3.6944046 -0.93530273 -6.846092 -3.2782745 -8.74411 -6.5003815l0 0c-3.3433952 0.3794098 -6.5759926 -1.300415 -8.093472 -4.20578c-1.517479 -2.9053802 -0.99679947 -6.417801 1.3036232 -8.79409l0 0c-2.9823914 -1.7022629 -4.5041885 -5.0801086 -3.7718315 -8.372124c0.732357 -3.2920227 3.5529137 -5.752228 6.99086 -6.097725z" fill-rule="nonzero"></path><path fill="#000000" fill-opacity="0.0" d="m54.720448 126.20227l0 0c1.407402 0.80329895 3.0332794 1.1676941 4.659336 1.0442657m2.1297798 11.955902c0.6992645 -0.07936096 1.3846741 -0.24739075 2.038559 -0.49978638m17.596714 5.470825c-0.49181366 -0.7152405 -0.90358734 -1.4795227 -1.228302 -2.2798462m23.440536 -0.9315491l0 0c0.25374603 -0.8147278 0.41814423 -1.653244 0.49046326 -2.501587m15.7842865 -6.159073c0.03289795 -3.972458 -2.293747 -7.6096725 -5.9805603 -9.349365m14.099541 -9.967453c-0.5970688 1.3526993 -1.5085602 2.552658 -2.6630096 3.5057907m-3.774788 -16.456161l0 0c0.10173035 0.5462494 0.14881897 1.100708 0.14059448 1.655693m-15.74765 -5.7108765l0 0c-0.5577469 0.6364441 -1.0172577 1.3476639 -1.3642197 2.1115112m-12.204811 -0.8654709l0 0c-0.29723358 0.5780716 -0.5191879 1.1897812 -0.6607437 1.821022m-14.883774 0.49809265l0 0c0.86782837 0.4928894 1.6706848 1.0861359 2.3909378 1.7667007m-20.977772 10.245544l0 0c0.0882988 0.6292877 0.22782135 1.2508163 0.4172554 1.8587723" fill-rule="nonzero"></path><path stroke="#ffffff" stroke-width="1.0" stroke-linejoin="round" stroke-linecap="butt" d="m58.005566 111.55645l0 0c-0.6406746 -4.565819 1.4627876 -9.085701 5.4178123 -11.641693c3.9550247 -2.5559998 9.067986 -2.6998367 13.169258 -0.37049103l0 0c1.4527969 -2.6547546 4.111847 -4.4876785 7.1728287 -4.944351c3.0609818 -0.45667267 6.1643753 0.51654816 8.37146 2.6252823l0 0c1.2376022 -2.4069672 3.6676407 -4.024147 6.427826 -4.277672c2.7601852 -0.25352478 5.459877 0.89247894 7.141083 3.0313644l0 0c2.2359009 -2.5513916 5.793274 -3.6256256 9.13282 -2.7578888c3.3395538 0.8677368 5.8614655 3.5215912 6.4745026 6.8132324l0 0c2.739357 0.72460175 5.021179 2.5666428 6.255928 5.050194c1.2347488 2.483551 1.3012772 5.3649826 0.18242645 7.899826l0 0c2.697464 3.4045715 3.328476 7.9411163 1.6575317 11.916687c-1.6709366 3.9755707 -5.3927765 6.792877 -9.776588 7.400543c-0.030899048 3.7312164 -2.1410446 7.1549225 -5.517082 8.951492c-3.3760452 1.7965698 -7.4908066 1.6854553 -10.7582855 -0.29051208c-1.3917694 4.4687653 -5.3091354 7.756851 -10.059662 8.443665c-4.750519 0.68681335 -9.482567 -1.3507538 -12.151718 -5.232422c-3.2718277 1.9132843 -7.1977386 2.464447 -10.892143 1.5291443c-3.6944046 -0.93530273 -6.846092 -3.2782745 -8.74411 -6.5003815l0 0c-3.3433952 0.3794098 -6.5759926 -1.300415 -8.093472 -4.20578c-1.517479 -2.9053802 -0.99679947 -6.417801 1.3036232 -8.79409l0 0c-2.9823914 -1.7022629 -4.5041885 -5.0801086 -3.7718315 -8.372124c0.732357 -3.2920227 3.5529137 -5.752228 6.99086 -6.097725z" fill-rule="nonzero"></path><path stroke="#ffffff" stroke-width="1.0" stroke-linejoin="round" stroke-linecap="butt" d="m54.720448 126.20227l0 0c1.407402 0.80329895 3.0332794 1.1676941 4.659336 1.0442657m2.1297798 11.955902c0.6992645 -0.07936096 1.3846741 -0.24739075 2.038559 -0.49978638m17.596714 5.470825c-0.49181366 -0.7152405 -0.90358734 -1.4795227 -1.228302 -2.2798462m23.440536 -0.9315491l0 0c0.25374603 -0.8147278 0.41814423 -1.653244 0.49046326 -2.501587m15.7842865 -6.159073c0.03289795 -3.972458 -2.293747 -7.6096725 -5.9805603 -9.349365m14.099541 -9.967453c-0.5970688 1.3526993 -1.5085602 2.552658 -2.6630096 3.5057907m-3.774788 -16.456161l0 0c0.10173035 0.5462494 0.14881897 1.100708 0.14059448 1.655693m-15.74765 -5.7108765l0 0c-0.5577469 0.6364441 -1.0172577 1.3476639 -1.3642197 2.1115112m-12.204811 -0.8654709l0 0c-0.29723358 0.5780716 -0.5191879 1.1897812 -0.6607437 1.821022m-14.883774 0.49809265l0 0c0.86782837 0.4928894 1.6706848 1.0861359 2.3909378 1.7667007m-20.977772 10.245544l0 0c0.0882988 0.6292877 0.22782135 1.2508163 0.4172554 1.8587723" fill-rule="nonzero"></path></g></svg>

