<?xml version="1.0" standalone="yes"?>

<svg version="1.1" viewBox="0.0 0.0 314.0 311.0" fill="none" stroke="none" stroke-linecap="square" stroke-miterlimit="10" xmlns="http://www.w3.org/2000/svg" xmlns:xlink="http://www.w3.org/1999/xlink"><clipPath id="p.0"><path d="m0 0l314.0 0l0 311.0l-314.0 0l0 -311.0z" clip-rule="nonzero"></path></clipPath><g clip-path="url(#p.0)"><path fill="#000000" fill-opacity="0.0" d="m0 0l314.44357 0l0 311.11023l-314.44357 0z" fill-rule="nonzero"></path><path fill="#a3aaff" d="m18.64523 198.96358l0 0c-1.6652546 -12.480209 3.8021088 -24.83487 14.082088 -31.821426c10.27998 -6.986557 23.569687 -7.37973 34.229813 -1.01268l0 0c3.7761383 -7.2565155 10.687584 -12.266632 18.643745 -13.514893c7.956169 -1.2482758 16.022575 1.4119263 21.759285 7.175949l0 0c3.2167892 -6.5792236 9.533005 -10.999619 16.707329 -11.692612c7.1743317 -0.6929779 14.1914215 2.4395294 18.561249 8.285934l0 0c5.8115997 -6.9739532 15.057983 -9.910278 23.73822 -7.5384064c8.680222 2.371872 15.2352295 9.625916 16.828644 18.623291l0 0c7.1201935 1.9806366 13.051163 7.015671 16.260529 13.8042145c3.209381 6.7885284 3.3823242 14.664642 0.47416687 21.593384l0 0c7.011307 9.306046 8.651428 21.706253 4.308304 32.573074c-4.3431396 10.866821 -14.017014 18.567642 -25.411514 20.228653c-0.080322266 10.198914 -5.565033 19.557281 -14.340118 24.468018c-8.77507 4.9107666 -19.470245 4.607025 -27.963135 -0.7940979c-3.6175232 12.214935 -13.799629 21.202576 -26.147278 23.079926c-12.347649 1.8773499 -24.647285 -3.6921692 -31.585 -14.302277c-8.504196 5.229767 -18.708519 6.7362976 -28.311085 4.1797485c-9.602566 -2.556549 -17.794498 -8.960846 -22.727865 -17.768158l0 0c-8.690218 1.0370789 -17.092457 -3.554535 -21.036716 -11.496094c-3.9442596 -7.9415436 -2.5909019 -17.54242 3.3884077 -24.037766l0 0c-7.751899 -4.652954 -11.707385 -13.885956 -9.803827 -22.884369c1.9035574 -8.998413 9.234805 -15.723145 18.170786 -16.667526z" fill-rule="nonzero"></path><path fill="#000000" fill-opacity="0.0" d="m10.106492 238.99648l0 0c3.658145 2.1957397 7.88416 3.1917725 12.110633 2.8543854m5.5357723 32.680267c1.8175392 -0.21691895 3.5990734 -0.676239 5.2986584 -1.3661194m45.73775 14.953949c-1.2783432 -1.9550171 -2.3486328 -4.0441284 -3.1926346 -6.23172m60.927116 -2.5462952l0 0c0.65953064 -2.2269592 1.086853 -4.518982 1.274826 -6.83786m41.026825 -16.83519c0.085510254 -10.858307 -5.9619446 -20.800278 -15.5448 -25.555557m36.64781 -27.24504c-1.5519104 3.697464 -3.9210663 6.9774323 -6.9217377 9.582718m-9.811508 -44.981277l0 0c0.2644348 1.4931183 0.3868103 3.0086823 0.36543274 4.5256653m-40.931595 -15.610092l0 0c-1.449707 1.7396545 -2.6440735 3.6837006 -3.5459137 5.771591m-31.723 -2.3656769l0 0c-0.77256775 1.5801086 -1.349472 3.2521362 -1.7174225 4.9775696m-38.686203 1.361496l0 0c2.2556763 1.3472748 4.3424835 2.9688416 6.2145767 4.829117m-54.525852 28.005173l0 0c0.22951508 1.7200928 0.5921612 3.4189758 1.0845432 5.080765" fill-rule="nonzero"></path><path stroke="#10b2ff" stroke-width="3.0" stroke-linejoin="round" stroke-linecap="butt" d="m18.64523 198.96358l0 0c-1.6652546 -12.480209 3.8021088 -24.83487 14.082088 -31.821426c10.27998 -6.986557 23.569687 -7.37973 34.229813 -1.01268l0 0c3.7761383 -7.2565155 10.687584 -12.266632 18.643745 -13.514893c7.956169 -1.2482758 16.022575 1.4119263 21.759285 7.175949l0 0c3.2167892 -6.5792236 9.533005 -10.999619 16.707329 -11.692612c7.1743317 -0.6929779 14.1914215 2.4395294 18.561249 8.285934l0 0c5.8115997 -6.9739532 15.057983 -9.910278 23.73822 -7.5384064c8.680222 2.371872 15.2352295 9.625916 16.828644 18.623291l0 0c7.1201935 1.9806366 13.051163 7.015671 16.260529 13.8042145c3.209381 6.7885284 3.3823242 14.664642 0.47416687 21.593384l0 0c7.011307 9.306046 8.651428 21.706253 4.308304 32.573074c-4.3431396 10.866821 -14.017014 18.567642 -25.411514 20.228653c-0.080322266 10.198914 -5.565033 19.557281 -14.340118 24.468018c-8.77507 4.9107666 -19.470245 4.607025 -27.963135 -0.7940979c-3.6175232 12.214935 -13.799629 21.202576 -26.147278 23.079926c-12.347649 1.8773499 -24.647285 -3.6921692 -31.585 -14.302277c-8.504196 5.229767 -18.708519 6.7362976 -28.311085 4.1797485c-9.602566 -2.556549 -17.794498 -8.960846 -22.727865 -17.768158l0 0c-8.690218 1.0370789 -17.092457 -3.554535 -21.036716 -11.496094c-3.9442596 -7.9415436 -2.5909019 -17.54242 3.3884077 -24.037766l0 0c-7.751899 -4.652954 -11.707385 -13.885956 -9.803827 -22.884369c1.9035574 -8.998413 9.234805 -15.723145 18.170786 -16.667526z" fill-rule="nonzero"></path><path stroke="#10b2ff" stroke-width="3.0" stroke-linejoin="round" stroke-linecap="butt" d="m10.106492 238.99648l0 0c3.658145 2.1957397 7.88416 3.1917725 12.110633 2.8543854m5.5357723 32.680267c1.8175392 -0.21691895 3.5990734 -0.676239 5.2986584 -1.3661194m45.73775 14.953949c-1.2783432 -1.9550171 -2.3486328 -4.0441284 -3.1926346 -6.23172m60.927116 -2.5462952l0 0c0.65953064 -2.2269592 1.086853 -4.518982 1.274826 -6.83786m41.026825 -16.83519c0.085510254 -10.858307 -5.9619446 -20.800278 -15.5448 -25.555557m36.64781 -27.24504c-1.5519104 3.697464 -3.9210663 6.9774323 -6.9217377 9.582718m-9.811508 -44.981277l0 0c0.2644348 1.4931183 0.3868103 3.0086823 0.36543274 4.5256653m-40.931595 -15.610092l0 0c-1.449707 1.7396545 -2.6440735 3.6837006 -3.5459137 5.771591m-31.723 -2.3656769l0 0c-0.77256775 1.5801086 -1.349472 3.2521362 -1.7174225 4.9775696m-38.686203 1.361496l0 0c2.2556763 1.3472748 4.3424835 2.9688416 6.2145767 4.829117m-54.525852 28.005173l0 0c0.22951508 1.7200928 0.5921612 3.4189758 1.0845432 5.080765" fill-rule="nonzero"></path><path fill="#000000" d="m67.50746 209.91695l0 0c0 -3.2636871 2.1669388 -5.909424 4.8399887 -5.909424l0 0c1.2836456 0 2.514717 0.62260437 3.4223862 1.730835c0.9076767 1.1082306 1.4176025 2.6113129 1.4176025 4.178589l0 0c0 3.2637024 -2.1669388 5.909439 -4.8399887 5.909439l0 0c-2.67305 0 -4.8399887 -2.6457367 -4.8399887 -5.909439z" fill-rule="nonzero"></path><path stroke="#000000" stroke-width="3.0" stroke-linejoin="round" stroke-linecap="butt" d="m67.50746 209.91695l0 0c0 -3.2636871 2.1669388 -5.909424 4.8399887 -5.909424l0 0c1.2836456 0 2.514717 0.62260437 3.4223862 1.730835c0.9076767 1.1082306 1.4176025 2.6113129 1.4176025 4.178589l0 0c0 3.2637024 -2.1669388 5.909439 -4.8399887 5.909439l0 0c-2.67305 0 -4.8399887 -2.6457367 -4.8399887 -5.909439z" fill-rule="nonzero"></path><path fill="#000000" d="m120.21356 198.10126l0 0c0 -3.2636871 2.1669388 -5.909424 4.8399887 -5.909424l0 0c1.2836456 0 2.514717 0.6225891 3.4223862 1.730835c0.90766907 1.1082306 1.4176025 2.6113129 1.4176025 4.178589l0 0c0 3.2636871 -2.1669388 5.909439 -4.8399887 5.909439l0 0c-2.67305 0 -4.8399887 -2.645752 -4.8399887 -5.909439z" fill-rule="nonzero"></path><path stroke="#000000" stroke-width="3.0" stroke-linejoin="round" stroke-linecap="butt" d="m120.21356 198.10126l0 0c0 -3.2636871 2.1669388 -5.909424 4.8399887 -5.909424l0 0c1.2836456 0 2.514717 0.6225891 3.4223862 1.730835c0.90766907 1.1082306 1.4176025 2.6113129 1.4176025 4.178589l0 0c0 3.2636871 -2.1669388 5.909439 -4.8399887 5.909439l0 0c-2.67305 0 -4.8399887 -2.645752 -4.8399887 -5.909439z" fill-rule="nonzero"></path><path fill="#000000" fill-opacity="0.0" d="m132.21745 227.54706c-1.0992584 9.81929 -7.5126724 17.727951 -17.539078 21.628204c-10.026405 3.900238 -22.652496 3.3979034 -34.52919 -1.3737793l10.457832 -31.215134z" fill-rule="nonzero"></path><path fill="#000000" fill-opacity="0.0" d="m132.21745 227.54706c-1.0992584 9.81929 -7.5126724 17.727951 -17.539078 21.628204c-10.026405 3.900238 -22.652496 3.3979034 -34.52919 -1.3737793" fill-rule="nonzero"></path><path stroke="#000000" stroke-width="3.0" stroke-linejoin="round" stroke-linecap="butt" d="m132.21745 227.54706c-1.0992584 9.81929 -7.5126724 17.727951 -17.539078 21.628204c-10.026405 3.900238 -22.652496 3.3979034 -34.52919 -1.3737793" fill-rule="nonzero"></path><path fill="#ffffff" d="m167.1643 46.073505c-1.2507629 -11.172638 2.855606 -22.232897 10.576645 -28.487522c7.7210236 -6.254627 17.702606 -6.6067038 25.709229 -0.90683365l0 0c2.8360443 -6.4966946 8.026993 -10.982234 14.00264 -12.09977c5.9756317 -1.1175349 12.034058 1.2641997 16.34262 6.424744l0 0c2.4160156 -5.890218 7.159973 -9.847703 12.548447 -10.468105c5.3884735 -0.6204022 10.658859 2.1840825 13.940872 7.418257l0 0c4.36499 -6.2432537 11.309723 -8.871894 17.829224 -6.748504c6.51947 2.1233902 11.44278 8.6174345 12.639557 16.67215l0 0c5.347595 1.7731457 9.802032 6.280649 12.212402 12.357931c2.4104004 6.07728 2.5403137 13.12818 0.35620117 19.330992l0 0c5.266205 8.331032 6.498169 19.43214 3.2361145 29.160534c-3.262024 9.728386 -10.527985 16.622452 -19.086273 18.109406c-0.060302734 9.130753 -4.1796875 17.50901 -10.770325 21.905357c-6.590637 4.3963547 -14.623352 4.124283 -21.001938 -0.7113495c-2.71698 10.935623 -10.364502 18.981964 -19.638535 20.662659c-9.274017 1.6806946 -18.511948 -3.305542 -23.722641 -12.804466c-6.3871613 4.6819687 -14.05127 6.0307236 -21.263412 3.7419815c-7.212143 -2.2887344 -13.364807 -8.022171 -17.070038 -15.906921l0 0c-6.52684 0.9284668 -12.837418 -3.182129 -15.79982 -10.291733c-2.9624023 -7.1096115 -1.9460297 -15.704765 2.5447083 -21.519768l0 0c-5.8224335 -4.1655884 -8.793396 -12.431549 -7.3636475 -20.487492c1.4297485 -8.055943 6.9362183 -14.076351 13.64798 -14.92181z" fill-rule="nonzero"></path><path fill="#ffffff" d="m202.39029 156.25984c0 2.1308594 -1.727417 3.858261 -3.8582764 3.858261c-2.1308594 0 -3.858261 -1.7274017 -3.858261 -3.858261c0 -2.1308594 1.7274017 -3.858261 3.858261 -3.858261c2.1308594 0 3.8582764 1.7274017 3.8582764 3.858261z" fill-rule="nonzero"></path><path fill="#ffffff" d="m207.95294 151.69426c0 4.2617188 -3.4548187 7.7165375 -7.7165375 7.7165375c-4.2617188 0 -7.7165375 -3.4548187 -7.7165375 -7.7165375c0 -4.261734 3.4548187 -7.7165375 7.7165375 -7.7165375c4.2617188 0 7.7165375 3.4548035 7.7165375 7.7165375z" fill-rule="nonzero"></path><path fill="#ffffff" d="m216.21436 139.89944c0 6.3925934 -5.1822205 11.574799 -11.574799 11.574799c-6.3925934 0 -11.574814 -5.182205 -11.574814 -11.574799c0 -6.392578 5.1822205 -11.574799 11.574814 -11.574799c6.392578 0 11.574799 5.1822205 11.574799 11.574799z" fill-rule="nonzero"></path><path fill="#000000" fill-opacity="0.0" d="m170.01233 83.928894l0 0c-3.1744537 0.30205536 -6.3485565 -0.5896454 -9.096161 -2.5553894m17.12172 30.520119c-1.2765198 0.6176529 -2.6145782 1.0288773 -3.9796906 1.2230682m38.271393 12.214119l0 0c-0.96009827 -1.7502289 -1.7639465 -3.6204987 -2.3978424 -5.578949m46.741257 -8.332809c-0.14120483 2.075943 -0.4621277 4.127861 -0.9574585 6.1215363m19.99527 -43.94452l0 0c7.1970215 4.257286 11.7388 13.157799 11.674591 22.878624m15.863251 -47.2459c-1.1655273 3.3100777 -2.9448853 6.2464104 -5.1984863 8.57877m-7.2760315 -40.410637l0 0c0.1986084 1.3367119 0.29052734 2.693512 0.2744751 4.0515995m-33.47467 -8.777592l0 0c0.67736816 -1.8691664 1.5744324 -3.6095457 2.6632996 -5.1669464m-27.572205 7.628907l0 0c0.27635193 -1.5446854 0.70962524 -3.0415668 1.289856 -4.4561625m-30.523285 5.970146l0 0c1.6941833 1.2060871 3.261551 2.6577435 4.6676483 4.323084m-40.119568 29.653593l0 0c-0.36982727 -1.4877052 -0.6422119 -3.0086365 -0.8146057 -4.5485497" fill-rule="nonzero"></path><path stroke="#999999" stroke-width="1.0" stroke-linejoin="round" stroke-linecap="butt" d="m167.1643 46.073505c-1.2507629 -11.172638 2.855606 -22.232897 10.576645 -28.487522c7.7210236 -6.254627 17.702606 -6.6067038 25.709229 -0.90683365l0 0c2.8360443 -6.4966946 8.026993 -10.982234 14.00264 -12.09977c5.9756317 -1.1175349 12.034058 1.2641997 16.34262 6.424744l0 0c2.4160156 -5.890218 7.159973 -9.847703 12.548447 -10.468105c5.3884735 -0.6204022 10.658859 2.1840825 13.940872 7.418257l0 0c4.36499 -6.2432537 11.309723 -8.871894 17.829224 -6.748504c6.51947 2.1233902 11.44278 8.6174345 12.639557 16.67215l0 0c5.347595 1.7731457 9.802032 6.280649 12.212402 12.357931c2.4104004 6.07728 2.5403137 13.12818 0.35620117 19.330992l0 0c5.266205 8.331032 6.498169 19.43214 3.2361145 29.160534c-3.262024 9.728386 -10.527985 16.622452 -19.086273 18.109406c-0.060302734 9.130753 -4.1796875 17.50901 -10.770325 21.905357c-6.590637 4.3963547 -14.623352 4.124283 -21.001938 -0.7113495c-2.71698 10.935623 -10.364502 18.981964 -19.638535 20.662659c-9.274017 1.6806946 -18.511948 -3.305542 -23.722641 -12.804466c-6.3871613 4.6819687 -14.05127 6.0307236 -21.263412 3.7419815c-7.212143 -2.2887344 -13.364807 -8.022171 -17.070038 -15.906921l0 0c-6.52684 0.9284668 -12.837418 -3.182129 -15.79982 -10.291733c-2.9624023 -7.1096115 -1.9460297 -15.704765 2.5447083 -21.519768l0 0c-5.8224335 -4.1655884 -8.793396 -12.431549 -7.3636475 -20.487492c1.4297485 -8.055943 6.9362183 -14.076351 13.64798 -14.92181z" fill-rule="nonzero"></path><path stroke="#999999" stroke-width="1.0" stroke-linejoin="round" stroke-linecap="butt" d="m202.39029 156.25984c0 2.1308594 -1.727417 3.858261 -3.8582764 3.858261c-2.1308594 0 -3.858261 -1.7274017 -3.858261 -3.858261c0 -2.1308594 1.7274017 -3.858261 3.858261 -3.858261c2.1308594 0 3.8582764 1.7274017 3.8582764 3.858261z" fill-rule="nonzero"></path><path stroke="#999999" stroke-width="1.0" stroke-linejoin="round" stroke-linecap="butt" d="m207.95294 151.69426c0 4.2617188 -3.4548187 7.7165375 -7.7165375 7.7165375c-4.2617188 0 -7.7165375 -3.4548187 -7.7165375 -7.7165375c0 -4.261734 3.4548187 -7.7165375 7.7165375 -7.7165375c4.2617188 0 7.7165375 3.4548035 7.7165375 7.7165375z" fill-rule="nonzero"></path><path stroke="#999999" stroke-width="1.0" stroke-linejoin="round" stroke-linecap="butt" d="m216.21436 139.89944c0 6.3925934 -5.1822205 11.574799 -11.574799 11.574799c-6.3925934 0 -11.574814 -5.182205 -11.574814 -11.574799c0 -6.392578 5.1822205 -11.574799 11.574814 -11.574799c6.392578 0 11.574799 5.1822205 11.574799 11.574799z" fill-rule="nonzero"></path><path stroke="#999999" stroke-width="1.0" stroke-linejoin="round" stroke-linecap="butt" d="m170.01233 83.928894l0 0c-3.1744537 0.30205536 -6.3485565 -0.5896454 -9.096161 -2.5553894m17.12172 30.520119c-1.2765198 0.6176529 -2.6145782 1.0288773 -3.9796906 1.2230682m38.271393 12.214119l0 0c-0.96009827 -1.7502289 -1.7639465 -3.6204987 -2.3978424 -5.578949m46.741257 -8.332809c-0.14120483 2.075943 -0.4621277 4.127861 -0.9574585 6.1215363m19.99527 -43.94452l0 0c7.1970215 4.257286 11.7388 13.157799 11.674591 22.878624m15.863251 -47.2459c-1.1655273 3.3100777 -2.9448853 6.2464104 -5.1984863 8.57877m-7.2760315 -40.410637l0 0c0.1986084 1.3367119 0.29052734 2.693512 0.2744751 4.0515995m-33.47467 -8.777592l0 0c0.67736816 -1.8691664 1.5744324 -3.6095457 2.6632996 -5.1669464m-27.572205 7.628907l0 0c0.27635193 -1.5446854 0.70962524 -3.0415668 1.289856 -4.4561625m-30.523285 5.970146l0 0c1.6941833 1.2060871 3.261551 2.6577435 4.6676483 4.323084m-40.119568 29.653593l0 0c-0.36982727 -1.4877052 -0.6422119 -3.0086365 -0.8146057 -4.5485497" fill-rule="nonzero"></path><path fill="#000000" fill-opacity="0.0" d="m154.04199 86.48819l132.56693 -86.48819l21.228363 32.598423l-132.56694 86.48819z" fill-rule="nonzero"></path><path fill="#000000" d="m186.55954 98.0256l0.19587708 -0.50092316q0.4161682 -0.8498535 0.690979 -1.0291443q0.62812805 -0.4098053 2.0811615 0.24665833q0.905365 0.41677094 1.1867371 0.84885406q0.27285767 0.4189911 0.18562317 0.8863373q-0.08265686 0.44571686 -0.30412292 0.90735626q-0.22999573 0.44854736 -0.42071533 0.87148285q-0.19926453 0.40984344 -1.0199127 1.4116516q-0.8160858 0.98017883 -1.7713928 1.6034241q-0.95529175 0.62324524 -2.098755 1.0147934q-1.1303864 0.38300323 -2.5478973 0.46826935q-1.4260406 0.07217407 -2.8047028 -0.24102783q-1.3786621 -0.31320953 -2.7848969 -1.2986984q-1.4147797 -0.99858093 -2.4294434 -2.5567017q-1.0231781 -1.5712204 -1.3268127 -3.182785q-0.31214905 -1.6246643 -0.04649353 -2.9919815q0.2787323 -1.3758469 0.9589844 -2.621872q1.2552338 -2.3674011 3.244339 -3.665123q0.94221497 -0.61470795 2.1067047 -0.945343q1.1690521 -0.3522644 1.875534 -0.38407898l0.6632385 -0.0409317q0.49827576 -0.007926941 0.80145264 -4.9591064E-4q0.79629517 0.07748413 1.1458893 0.61431885q0.34959412 0.5368271 0.2929077 1.3946838q-0.07746887 1.5990143 -0.69252014 2.0002823q-0.3664093 0.23905182 -1.3237152 0.22929382q-1.280899 -0.13445282 -2.6942139 0.7876053q-1.2955322 0.8452225 -1.9765778 2.5768204q-0.3120575 0.8379135 -0.18908691 1.9143677q0.11445618 1.0633698 0.77952576 2.0846634q0.6565399 1.008194 1.5908661 1.5553207q0.92578125 0.5340347 1.8392639 0.59104156q1.8099213 0.08781433 3.1316376 -0.7744827q0.62812805 -0.4098053 1.0754395 -0.9255066q0.43876648 -0.52879333 0.58509827 -0.8481293zm0.75035095 -15.395912q0.5619354 0.11844635 1.0991058 0.9433365l0.21316528 0.32733917q0.3240204 0.49755096 0.44676208 0.7719345q1.0071411 1.8615341 0.93125916 3.7206955q-0.0758667 1.8591614 -1.4630127 2.764145q-0.14395142 0.09391785 -0.39814758 -0.038742065q-0.24964905 -0.15428925 -0.471344 -0.49472046q-0.22167969 -0.34042358 -0.24945068 -0.5834961q-0.03630066 -0.25616455 0.051345825 -0.3506546q0.0921936 -0.116119385 0.14453125 -0.15026855q0.056915283 -0.055786133 0.15426636 -0.24988556q0.097335815 -0.19410706 0.12588501 -0.43660736q0.032699585 -0.6369858 -0.4993286 -1.5398636q-0.748703 0.3392105 -1.3106232 0.22075653q-0.54885864 -0.12698364 -1.2736053 -1.2399292q-0.52012634 -0.7986984 -0.57962036 -1.3195724q-0.046417236 -0.5294037 0.27398682 -0.92500305q0.3334961 -0.40413666 1.1971893 -0.96762085q0.86369324 -0.5634842 1.6076355 -0.45184326zm8.446457 1.8026962q0.012817383 -2.041893 1.3345337 -2.9041977q2.054535 -1.3404007 4.204727 -0.2432785q0.026367188 -0.44628906 0.11418152 -0.96998596q0.09237671 -0.54533386 0.5170746 -1.3820953q0.4377594 -0.84529877 1.1575165 -1.3148651q1.6096039 -1.0501251 3.505783 -0.5148697q1.8876495 0.5221634 3.7464447 3.3765335l2.2936401 3.5221405q0.2984314 0.4582672 0.4126587 0.71956635q0.118774414 0.23966217 0.16638184 0.6563568q0.08786011 0.7075882 -1.1945953 1.5442734q-1.2693634 0.8281479 -1.9239044 0.45295715q-0.32696533 -0.21577454 -0.5111847 -0.41275024q-0.17964172 -0.21860504 -0.48660278 -0.6899719l-2.2936401 -3.5221405q-1.1340332 -1.7414322 -2.3772278 -0.9303589q-0.70666504 0.46103668 -0.64834595 1.0946121q0.04978943 0.620491 0.5954895 1.4584656l2.2936554 3.5221405q0.31547546 0.48445892 0.4211731 0.7326584q0.11024475 0.22657013 0.15785217 0.6432648q0.061691284 0.7246628 -1.2207642 1.561348q-1.2693634 0.8281479 -1.9108124 0.44441986q-0.34005737 -0.20723724 -0.52427673 -0.40421295q-0.17964172 -0.21860504 -0.48660278 -0.6899719l-2.2936401 -3.5221329q-1.1340332 -1.7414322 -2.3772278 -0.9303589q-1.2039337 0.7854614 -0.06990051 2.526886l2.3192139 3.5614243q0.30696106 0.47136688 0.42118835 0.7326584q0.118774414 0.23966217 0.15785217 0.6432648q0.04006958 0.7201004 -1.2292938 1.5482483q-1.2693634 0.8281555 -1.8937683 0.47061157q-0.34858704 -0.22032928 -0.5242615 -0.40421295q-0.17112732 -0.205513 -0.48660278 -0.6899719l-4.6128693 -7.083557q-0.2984314 -0.45827484 -0.41722107 -0.697937q-0.114212036 -0.2612915 -0.14476013 -0.65180206q-0.048614502 -0.7332001 1.0768127 -1.4674301q1.125412 -0.7342377 1.7044067 -0.5895996q0.58354187 0.12300873 1.0269165 0.80387115zm15.877518 -4.7991104q-1.5688782 -2.409195 -0.9039459 -5.0817566q0.6649475 -2.6725693 2.837265 -4.089813q2.1723022 -1.417244 4.8489227 -0.9433975q2.6896973 0.4653015 4.2585907 2.8744965q1.0914001 1.6759644 1.0718384 3.535698q-0.019561768 1.8597336 -0.8620148 3.2862015q-0.82936096 1.4179306 -2.164154 2.288765q-1.3217163 0.86229706 -2.9912262 1.0186996q-1.6695251 0.15640259 -3.3602905 -0.5501785q-1.6862183 -0.7282181 -2.7349854 -2.3387146zm5.138611 -1.300293q0.96980286 0.05757904 1.624115 -0.36930084q0.6673889 -0.43541718 0.9976959 -1.359848q0.3433838 -0.93297577 -0.2960968 -1.9149857q-0.6480255 -0.9951019 -1.5916443 -1.0697556q-0.930542 -0.08318329 -1.6502838 0.38638306q-0.7197418 0.46956635 -1.0153503 1.3900223q-0.30412292 0.90735626 0.33535767 1.8893661q0.6309662 0.9689102 1.5962067 1.0481186zm9.658188 -15.909092q2.015274 -1.3147926 4.356201 -0.6406021q2.3324127 0.6610985 3.7648773 2.860798l2.3106995 3.5483246q0.29841614 0.45827484 0.42573547 0.71102905q0.118774414 0.23966217 0.16241455 0.62163544q0.07476807 0.7161255 -1.2207642 1.561348q-1.4264069 0.9305954 -2.126358 0.3425064q-0.33946228 -0.26359558 -0.7913666 -0.95755005l-2.302185 -3.5352325q-0.5371704 -0.8248825 -1.3067017 -0.97579956q-0.7780609 -0.1640091 -1.5763245 0.356781q-0.7851715 0.51226044 -0.9669647 1.3211441q-0.18179321 0.8088913 0.32980347 1.5944977l2.3192139 3.5614166q0.2984314 0.45827484 0.42573547 0.71102905q0.11878967 0.23966217 0.13624573 0.63871q0.08786011 0.70758057 -1.1945801 1.5442734q-1.2693787 0.8281479 -1.8937683 0.47060394q-0.34005737 -0.20723724 -0.52427673 -0.40421295q-0.17964172 -0.21860504 -0.48660278 -0.6899719l-4.6299286 -7.109749q-0.28990173 -0.44517517 -0.4172058 -0.6979294q-0.114212036 -0.26129913 -0.13624573 -0.63871q-0.036102295 -0.685379 1.2332611 -1.5135269q1.2170258 -0.7939987 1.8033447 -0.5235596q0.417984 0.21237183 0.73347473 0.6968231q-0.015274048 -0.19525146 0.08900452 -0.63640594q0.11735535 -0.4496994 0.27676392 -0.77757263q0.3951416 -0.9107666 1.2064972 -1.4400978zm11.095871 3.3576927q-0.043045044 -0.43832397 0.26426697 -0.82538605q0.3204193 -0.39559937 1.1971893 -0.96762085q0.88986206 -0.5805588 1.5382538 -0.443882q0.64837646 0.13667297 1.3816681 1.2627144q0.2728424 0.4189911 0.45924377 0.81975555q0.93377686 1.8347702 0.7970276 3.7149887q-0.11512756 1.8847733 -1.3714142 2.7043839q-0.14395142 0.09391022 -0.39814758 -0.038742065q-0.24111938 -0.1411972 -0.46279907 -0.48162842q-0.21316528 -0.32733154 -0.24946594 -0.5834961q-0.03630066 -0.25617218 0.060455322 -0.3939209q0.10984802 -0.14628601 0.17706299 -0.35803986q0.08882141 -0.2071991 0.06916809 -0.8100357q-0.011123657 -0.58974457 -0.3214569 -1.1521835q-0.6923828 0.3397751 -1.2759247 0.21677399q-0.5835571 -0.12300873 -1.0820618 -0.9171524q-0.5070343 -0.80724335 -0.6343384 -1.0599976q-0.114212036 -0.26129913 -0.14872742 -0.68653107zm6.7425995 -17.253132q-0.2982025 0.3437996 -0.92633057 0.7536049q-0.6281433 0.4098053 -1.0713043 0.5310173q-0.43006897 0.11267471 -0.77467346 -0.07292938q-0.34007263 -0.20723724 -0.52427673 -0.40421295q-0.17965698 -0.21860504 -0.47807312 -0.67687607q-0.30696106 -0.47136688 -0.41722107 -0.697937q-0.10568237 -0.24819946 -0.14932251 -0.6301689q-0.06625366 -0.70302963 1.2031097 -1.5311775q1.2039337 -0.7854614 1.8459778 -0.45808792q0.31448364 0.16795349 0.48561096 0.3734703q0.1842041 0.19697571 0.47410583 0.6421509l0.07675171 0.11784363q0.28990173 0.44517517 0.3955841 0.69337845q0.11026001 0.22657013 0.12771606 0.62561417q0.030548096 0.39050674 -0.26765442 0.73431015zm-0.88401794 2.9087868q0.28967285 -0.35689545 0.91781616 -0.76670074q0.62812805 -0.4098053 1.058197 -0.52248q0.443161 -0.121212006 0.7832184 0.08602142q0.34461975 0.1856041 0.5242615 0.40421295q0.18421936 0.19697571 0.49118042 0.6683388l5.3887787 8.275066q1.5347748 2.3568192 0.81134033 4.8250237q-0.701828 2.4727554 -2.6516724 3.7448578q-0.47109985 0.3073578 -0.6975403 0.4177704q-0.23951721 0.11895752 -0.62120056 0.16275787q-0.7110443 0.05344391 -1.4869537 -1.1380615q-0.767395 -1.1784058 -0.531662 -1.7612991q0.23573303 -0.5828934 0.9685669 -1.060997q0.73283386 -0.47810364 1.0312195 -1.2511215q0.30690002 -0.759922 -0.37521362 -1.8073997l-5.3973236 -8.288155q-0.46043396 -0.7070465 -0.47729492 -1.1624489q-0.025405884 -0.46849442 0.26428223 -0.82538605zm7.424469 2.6373558q-1.5688934 -2.409195 -0.9039459 -5.081764q0.66493225 -2.6725655 2.8372498 -4.0898094q2.1723175 -1.417244 4.848938 -0.94340134q2.6896973 0.46530533 4.2585754 2.874504q1.0914001 1.6759605 1.0718384 3.5356941q-0.019561768 1.8597374 -0.8619995 3.2862015q-0.8293762 1.4179268 -2.164154 2.288765q-1.3217163 0.8623009 -2.9912415 1.0186996q-1.6695251 0.15640259 -3.3602905 -0.55018234q-1.686203 -0.72821426 -2.73497 -2.338707zm5.138611 -1.3002968q0.96980286 0.05757904 1.6240997 -0.36930084q0.6673889 -0.435421 0.9977112 -1.3598518q0.3433838 -0.93296814 -0.29611206 -1.914978q-0.64801025 -0.9951019 -1.5916443 -1.0697556q-0.93052673 -0.08319092 -1.6502686 0.38637924q-0.7197571 0.46957016 -1.0153503 1.3900185q-0.30413818 0.90735626 0.33535767 1.8893661q0.6309662 0.96891403 1.5962067 1.0481224zm4.920456 -10.299549q-0.3069458 -0.47136307 -0.42575073 -0.71102905q-0.11419678 -0.26129532 -0.16638184 -0.6563568q-0.06625366 -0.70302963 1.2293091 -1.5482521q0.95529175 -0.62324524 1.5826416 -0.54748154q0.52783203 0.066078186 0.9291687 0.62511444q0.14950562 0.20095825 0.39678955 0.5806694l4.578766 7.031185q0.3069458 0.47136307 0.43426514 0.7241211q0.118774414 0.23966217 0.14474487 0.65180206q0.0793457 0.6944885 -1.2030945 1.5311775q-1.2693787 0.8281479 -1.8937683 0.47060776q-0.3486023 -0.22032928 -0.5242615 -0.40421295q-0.17114258 -0.205513 -0.48660278 -0.6899719l-4.595825 -7.057373zm0.8807373 -5.891651q0.043640137 0.38196945 -0.2722168 0.7559395q-0.3027649 0.36543274 -0.9439697 0.7837753q-0.6281433 0.4098053 -1.0843811 0.5395546q-0.4562378 0.1297493 -0.8093872 -0.06894684q-0.34005737 -0.20723724 -0.5242615 -0.40421295q-0.17965698 -0.21860504 -0.47808838 -0.67687607q-0.3069458 -0.47136688 -0.42575073 -0.71102905q-0.11419678 -0.26129532 -0.15783691 -0.6432648q-0.074798584 -0.7161217 1.2207642 -1.561348q1.2562561 -0.8196106 1.8675842 -0.45352936q0.36624146 0.19015884 0.5458679 0.4087677q0.17965698 0.21860504 0.47808838 0.67687607q0.2984314 0.45827103 0.42575073 0.71102905q0.118774414 0.23966599 0.15783691 0.6432648zm8.982574 -3.0618935q2.0152893 -1.3147926 4.3562317 -0.6406021q2.3323975 0.6610985 3.764862 2.860798l2.3106995 3.5483284q0.2984314 0.45827103 0.4257202 0.71102524q0.118774414 0.23966599 0.16241455 0.62163544q0.074798584 0.7161217 -1.2207642 1.5613441q-1.4263916 0.930603 -2.1263428 0.3425064q-0.33947754 -0.26359177 -0.79138184 -0.9575424l-2.3021545 -3.5352325q-0.5371704 -0.82489014 -1.3067017 -0.9758072q-0.7780762 -0.1640091 -1.5763245 0.35678482q-0.78518677 0.5122566 -0.96698 1.3211441q-0.18179321 0.8088875 0.32980347 1.5944939l2.3192139 3.5614204q0.2984314 0.45827103 0.42575073 0.71102905q0.118774414 0.23966599 0.13623047 0.63871q0.08786011 0.7075844 -1.1945801 1.5442696q-1.2693787 0.8281479 -1.8937683 0.47060776q-0.34005737 -0.20723724 -0.5242615 -0.40421295q-0.17965698 -0.21860504 -0.4866333 -0.6899719l-4.6299133 -7.109745q-0.28988647 -0.445179 -0.4172058 -0.697937q-0.114227295 -0.26129532 -0.13623047 -0.6387062q-0.036132812 -0.685379 1.2332458 -1.5135269q1.2170105 -0.7939987 1.8033447 -0.52355576q0.41799927 0.2123642 0.7334595 0.6968231q-0.015258789 -0.19525528 0.089019775 -0.6364136q0.117370605 -0.4496956 0.27676392 -0.7775688q0.3951416 -0.9107666 1.2064819 -1.4400978zm11.391113 3.2956734q-0.046417236 -0.5294075 0.2654724 -0.9381027q0.32495117 -0.4172287 1.2017517 -0.9892502q0.87677 -0.5720215 1.5251465 -0.4353447q0.63986206 0.12358093 1.1770325 0.94847107l0.20465088 0.3142395q0.3154602 0.48445892 0.4296875 0.74575424q0.118774414 0.23966599 0.17492676 0.66945267q0.056518555 0.80264664 -1.160492 1.5966415q-1.2170105 0.7939987 -1.8654175 0.65732574q-0.64837646 -0.13667679 -1.3816528 -1.2627144q-0.5115967 -0.7856064 -0.57110596 -1.3064728zm1.1695251 -4.102478q-0.31982422 0.33924484 -0.9610596 0.75758743q-0.64120483 0.4183426 -1.0804138 0.5742798q-0.44769287 0.14284515 -0.77526855 -0.01657486q-0.31448364 -0.16795349 -0.48162842 -0.33874512q-0.16259766 -0.19241714 -0.43545532 -0.61140823l-4.1524353 -6.3765144q-0.27285767 -0.4189911 -0.38311768 -0.6455612q-0.09713745 -0.23510742 -0.11065674 -0.5994282q-0.0134887695 -0.36432076 0.29779053 -0.71665955q0.31585693 -0.37396812 0.9570923 -0.7923126q0.64120483 -0.4183426 1.0974731 -0.5480919q0.44769287 -0.14284325 0.7706909 0.038204193q0.32757568 0.1594181 0.49871826 0.364933q0.17565918 0.18388176 0.44851685 0.60287285l4.1524353 6.3765125q0.27285767 0.4189911 0.37002563 0.6540985q0.10171509 0.21347618 0.10668945 0.564703q0.0049743652 0.3512268 -0.31939697 0.7121048z" fill-rule="nonzero"></path></g></svg>

