<?xml version="1.0" standalone="yes"?>

<svg version="1.1" viewBox="0.0 0.0 256.0 183.0" fill="none" stroke="none" stroke-linecap="square" stroke-miterlimit="10" xmlns="http://www.w3.org/2000/svg" xmlns:xlink="http://www.w3.org/1999/xlink"><clipPath id="p.0"><path d="m0 0l256.0 0l0 183.0l-256.0 0l0 -183.0z" clip-rule="nonzero"></path></clipPath><g clip-path="url(#p.0)"><path fill="#000000" fill-opacity="0.0" d="m0 0l256.46194 0l0 183.51443l-256.46194 0z" fill-rule="nonzero"></path><path fill="#ffffff" d="m44.88701 30.783651l0 0c-0.9603729 -6.8441544 2.1927223 -13.6194515 8.121307 -17.450884c5.928585 -3.8314323 13.592918 -4.0470495 19.740738 -0.555357l0 0c2.177742 -3.979475 6.163658 -6.7270284 10.752068 -7.4115777c4.588417 -0.6845498 9.24041 0.77430725 12.548836 3.9352946l0 0c1.8551636 -3.6080475 5.4978027 -6.032195 9.635323 -6.4122276c4.137512 -0.38003302 8.184357 1.3378322 10.704483 4.5440083l0 0c3.351616 -3.8245218 8.684128 -5.4348044 13.690117 -4.1340694c5.0059814 1.3007348 8.786346 5.278864 9.7052765 10.213027l0 0c4.1062927 1.0861807 7.526764 3.847394 9.37764 7.5702333c1.8508911 3.7228394 1.9506378 8.042101 0.27345276 11.8418255l0 0c4.043518 5.103447 4.989395 11.9037285 2.4846497 17.863098c-2.5047302 5.9593697 -8.083771 10.182503 -14.655121 11.093403c-0.046310425 5.5930786 -3.2094116 10.725227 -8.270111 13.418282c-5.060684 2.6930542 -11.228722 2.5264893 -16.12667 -0.43549347c-2.0862656 6.6986847 -7.958412 11.62751 -15.079445 12.657043c-7.1210327 1.029541 -14.214378 -2.0247803 -18.215446 -7.843376c-4.9044647 2.8680038 -10.789421 3.6941833 -16.327335 2.2921677c-5.5379143 -1.402008 -10.262299 -4.914116 -13.1074295 -9.744057l0 0c-5.0117493 0.5687332 -9.857422 -1.9493179 -12.132122 -6.3044662c-2.2747002 -4.3551445 -1.4942055 -9.620274 1.9541321 -13.182323l0 0c-4.4706116 -2.5516853 -6.7517853 -7.6150703 -5.6539803 -12.549801c1.0978012 -4.9347305 5.325821 -8.62258 10.479305 -9.140478z" fill-rule="nonzero"></path><path fill="#000000" fill-opacity="0.0" d="m39.962616 52.737713l0 0c2.1096954 1.2041473 4.5468903 1.7503738 6.9843445 1.5653458m3.1925468 17.921879c1.0481987 -0.11894989 2.0756302 -0.37084198 3.0557976 -0.74918365m26.377502 8.20076c-0.7372284 -1.0721283 -1.3544846 -2.2177963 -1.8412323 -3.4174728m35.137398 -1.3963928l0 0c0.38035583 -1.2212753 0.6267929 -2.4782257 0.7352066 -3.7498856m23.660652 -9.232433c0.049316406 -5.9547005 -3.438324 -11.406883 -8.964859 -14.014679m21.135223 -14.941193c-0.8950043 2.027687 -2.2613373 3.8264198 -3.9918518 5.255169m-5.6584167 -24.66776l0 0c0.15249634 0.8188257 0.2230835 1.6499586 0.2107544 2.4818783m-23.605743 -8.560589l0 0c-0.8360596 0.9540286 -1.5248642 2.020142 -2.0449677 3.1651464m-18.295029 -1.2973423l0 0c-0.445549 0.86653614 -0.7782593 1.7834806 -0.9904556 2.7297096m-22.310791 0.746645l0 0c1.3008728 0.73883915 2.5043564 1.6281128 3.5840225 2.648283m-31.44571 15.358054l0 0c0.13236237 0.94330215 0.34150696 1.8749752 0.6254692 2.786295" fill-rule="nonzero"></path><path stroke="#ffffff" stroke-width="1.0" stroke-linejoin="round" stroke-linecap="butt" d="m44.88701 30.783651l0 0c-0.9603729 -6.8441544 2.1927223 -13.6194515 8.121307 -17.450884c5.928585 -3.8314323 13.592918 -4.0470495 19.740738 -0.555357l0 0c2.177742 -3.979475 6.163658 -6.7270284 10.752068 -7.4115777c4.588417 -0.6845498 9.24041 0.77430725 12.548836 3.9352946l0 0c1.8551636 -3.6080475 5.4978027 -6.032195 9.635323 -6.4122276c4.137512 -0.38003302 8.184357 1.3378322 10.704483 4.5440083l0 0c3.351616 -3.8245218 8.684128 -5.4348044 13.690117 -4.1340694c5.0059814 1.3007348 8.786346 5.278864 9.7052765 10.213027l0 0c4.1062927 1.0861807 7.526764 3.847394 9.37764 7.5702333c1.8508911 3.7228394 1.9506378 8.042101 0.27345276 11.8418255l0 0c4.043518 5.103447 4.989395 11.9037285 2.4846497 17.863098c-2.5047302 5.9593697 -8.083771 10.182503 -14.655121 11.093403c-0.046310425 5.5930786 -3.2094116 10.725227 -8.270111 13.418282c-5.060684 2.6930542 -11.228722 2.5264893 -16.12667 -0.43549347c-2.0862656 6.6986847 -7.958412 11.62751 -15.079445 12.657043c-7.1210327 1.029541 -14.214378 -2.0247803 -18.215446 -7.843376c-4.9044647 2.8680038 -10.789421 3.6941833 -16.327335 2.2921677c-5.5379143 -1.402008 -10.262299 -4.914116 -13.1074295 -9.744057l0 0c-5.0117493 0.5687332 -9.857422 -1.9493179 -12.132122 -6.3044662c-2.2747002 -4.3551445 -1.4942055 -9.620274 1.9541321 -13.182323l0 0c-4.4706116 -2.5516853 -6.7517853 -7.6150703 -5.6539803 -12.549801c1.0978012 -4.9347305 5.325821 -8.62258 10.479305 -9.140478z" fill-rule="nonzero"></path><path stroke="#ffffff" stroke-width="1.0" stroke-linejoin="round" stroke-linecap="butt" d="m39.962616 52.737713l0 0c2.1096954 1.2041473 4.5468903 1.7503738 6.9843445 1.5653458m3.1925468 17.921879c1.0481987 -0.11894989 2.0756302 -0.37084198 3.0557976 -0.74918365m26.377502 8.20076c-0.7372284 -1.0721283 -1.3544846 -2.2177963 -1.8412323 -3.4174728m35.137398 -1.3963928l0 0c0.38035583 -1.2212753 0.6267929 -2.4782257 0.7352066 -3.7498856m23.660652 -9.232433c0.049316406 -5.9547005 -3.438324 -11.406883 -8.964859 -14.014679m21.135223 -14.941193c-0.8950043 2.027687 -2.2613373 3.8264198 -3.9918518 5.255169m-5.6584167 -24.66776l0 0c0.15249634 0.8188257 0.2230835 1.6499586 0.2107544 2.4818783m-23.605743 -8.560589l0 0c-0.8360596 0.9540286 -1.5248642 2.020142 -2.0449677 3.1651464m-18.295029 -1.2973423l0 0c-0.445549 0.86653614 -0.7782593 1.7834806 -0.9904556 2.7297096m-22.310791 0.746645l0 0c1.3008728 0.73883915 2.5043564 1.6281128 3.5840225 2.648283m-31.44571 15.358054l0 0c0.13236237 0.94330215 0.34150696 1.8749752 0.6254692 2.786295" fill-rule="nonzero"></path><path fill="#ffffff" d="m146.26233 83.14586l0 0c-0.9603729 -6.8441544 2.1927338 -13.619453 8.121307 -17.45089c5.928589 -3.8314285 13.592926 -4.0470467 19.740738 -0.55535126l0 0c2.1777496 -3.979477 6.163666 -6.7270317 10.752075 -7.411579c4.5884094 -0.68455124 9.240402 0.77430725 12.548843 3.935295l0 0c1.8551483 -3.6080513 5.4977875 -6.032196 9.635315 -6.4122314c4.137512 -0.3800316 8.184357 1.3378334 10.704483 4.54401l0 0c3.3516235 -3.82452 8.684128 -5.434803 13.690109 -4.1340714c5.0059967 1.3007355 8.786346 5.278866 9.705292 10.213028l0 0c4.1062927 1.0861816 7.5267487 3.8473969 9.37764 7.570236c1.8508759 3.7228394 1.9506226 8.042099 0.27345276 11.841827l0 0c4.043503 5.1034393 4.98938 11.903725 2.4846497 17.86309c-2.5047302 5.9593735 -8.083771 10.18251 -14.655121 11.093407c-0.046325684 5.5930786 -3.2094269 10.725227 -8.270111 13.418282c-5.0606995 2.6930466 -11.228729 2.5264816 -16.126678 -0.43549347c-2.0862732 6.6986847 -7.9584045 11.627502 -15.079437 12.657043c-7.121048 1.029541 -14.214386 -2.0247803 -18.215454 -7.843384c-4.9044647 2.8680115 -10.789429 3.6941833 -16.327332 2.2921753c-5.537918 -1.402008 -10.262299 -4.9141235 -13.107437 -9.744057l0 0c-5.0117493 0.5687332 -9.857422 -1.9493179 -12.132126 -6.3044662c-2.2746887 -4.3551407 -1.4942017 -9.620277 1.9541473 -13.182327l0 0c-4.4706116 -2.5516815 -6.7518005 -7.6150665 -5.6539917 -12.549797c1.0978088 -4.9347305 5.325821 -8.6225815 10.479309 -9.14048z" fill-rule="nonzero"></path><path fill="#000000" fill-opacity="0.0" d="m141.33795 105.099915l0 0c2.1096954 1.2041473 4.546875 1.7503815 6.9843445 1.5653534m3.1925354 17.921875c1.0482025 -0.11894989 2.0756378 -0.37084198 3.0558014 -0.74918365m26.377502 8.200752c-0.7372284 -1.0721283 -1.3544769 -2.2177887 -1.8412323 -3.4174652m35.13739 -1.3963928l0 0c0.3803711 -1.2212753 0.62680054 -2.4782257 0.73521423 -3.7498856m23.66066 -9.232437c0.049301147 -5.9546967 -3.438324 -11.406883 -8.964874 -14.014679m21.135223 -14.941193c-0.8950043 2.027687 -2.261322 3.8264236 -3.9918518 5.2551727m-5.6584015 -24.667763l0 0c0.15249634 0.81882477 0.22306824 1.6499634 0.2107544 2.4818802m-23.605759 -8.560589l0 0c-0.8360596 0.9540291 -1.5248566 2.0201416 -2.0449524 3.1651459m-18.295029 -1.2973404l0 0c-0.44555664 0.8665352 -0.7782593 1.7834778 -0.99046326 2.7297096m-22.310791 0.74664307l0 0c1.3008728 0.7388382 2.504364 1.6281128 3.584015 2.648285m-31.44571 15.358055l0 0c0.13237 0.94329834 0.34150696 1.8749695 0.625473 2.786293" fill-rule="nonzero"></path><path stroke="#ffffff" stroke-width="1.0" stroke-linejoin="round" stroke-linecap="butt" d="m146.26233 83.14586l0 0c-0.9603729 -6.8441544 2.1927338 -13.619453 8.121307 -17.45089c5.928589 -3.8314285 13.592926 -4.0470467 19.740738 -0.55535126l0 0c2.1777496 -3.979477 6.163666 -6.7270317 10.752075 -7.411579c4.5884094 -0.68455124 9.240402 0.77430725 12.548843 3.935295l0 0c1.8551483 -3.6080513 5.4977875 -6.032196 9.635315 -6.4122314c4.137512 -0.3800316 8.184357 1.3378334 10.704483 4.54401l0 0c3.3516235 -3.82452 8.684128 -5.434803 13.690109 -4.1340714c5.0059967 1.3007355 8.786346 5.278866 9.705292 10.213028l0 0c4.1062927 1.0861816 7.5267487 3.8473969 9.37764 7.570236c1.8508759 3.7228394 1.9506226 8.042099 0.27345276 11.841827l0 0c4.043503 5.1034393 4.98938 11.903725 2.4846497 17.86309c-2.5047302 5.9593735 -8.083771 10.18251 -14.655121 11.093407c-0.046325684 5.5930786 -3.2094269 10.725227 -8.270111 13.418282c-5.0606995 2.6930466 -11.228729 2.5264816 -16.126678 -0.43549347c-2.0862732 6.6986847 -7.9584045 11.627502 -15.079437 12.657043c-7.121048 1.029541 -14.214386 -2.0247803 -18.215454 -7.843384c-4.9044647 2.8680115 -10.789429 3.6941833 -16.327332 2.2921753c-5.537918 -1.402008 -10.262299 -4.9141235 -13.107437 -9.744057l0 0c-5.0117493 0.5687332 -9.857422 -1.9493179 -12.132126 -6.3044662c-2.2746887 -4.3551407 -1.4942017 -9.620277 1.9541473 -13.182327l0 0c-4.4706116 -2.5516815 -6.7518005 -7.6150665 -5.6539917 -12.549797c1.0978088 -4.9347305 5.325821 -8.6225815 10.479309 -9.14048z" fill-rule="nonzero"></path><path stroke="#ffffff" stroke-width="1.0" stroke-linejoin="round" stroke-linecap="butt" d="m141.33795 105.099915l0 0c2.1096954 1.2041473 4.546875 1.7503815 6.9843445 1.5653534m3.1925354 17.921875c1.0482025 -0.11894989 2.0756378 -0.37084198 3.0558014 -0.74918365m26.377502 8.200752c-0.7372284 -1.0721283 -1.3544769 -2.2177887 -1.8412323 -3.4174652m35.13739 -1.3963928l0 0c0.3803711 -1.2212753 0.62680054 -2.4782257 0.73521423 -3.7498856m23.66066 -9.232437c0.049301147 -5.9546967 -3.438324 -11.406883 -8.964874 -14.014679m21.135223 -14.941193c-0.8950043 2.027687 -2.261322 3.8264236 -3.9918518 5.2551727m-5.6584015 -24.667763l0 0c0.15249634 0.81882477 0.22306824 1.6499634 0.2107544 2.4818802m-23.605759 -8.560589l0 0c-0.8360596 0.9540291 -1.5248566 2.0201416 -2.0449524 3.1651459m-18.295029 -1.2973404l0 0c-0.44555664 0.8665352 -0.7782593 1.7834778 -0.99046326 2.7297096m-22.310791 0.74664307l0 0c1.3008728 0.7388382 2.504364 1.6281128 3.584015 2.648285m-31.44571 15.358055l0 0c0.13237 0.94329834 0.34150696 1.8749695 0.625473 2.786293" fill-rule="nonzero"></path><path fill="#ffffff" d="m12.593044 124.330894l0 0c-0.960372 -6.8441544 2.1927214 -13.619453 8.121307 -17.450882c5.928587 -3.8314362 13.592918 -4.0470505 19.740738 -0.5553589l0 0c2.1777458 -3.979477 6.1636543 -6.727028 10.752071 -7.4115753c4.5884132 -0.6845474 9.240406 0.77430725 12.548836 3.935295l0 0c1.8551636 -3.6080475 5.497795 -6.032196 9.635315 -6.4122314c4.13752 -0.38002777 8.184357 1.3378372 10.704491 4.5440063l0 0c3.351616 -3.8245163 8.68412 -5.434799 13.690109 -4.1340637c5.005989 1.3007355 8.786346 5.278862 9.705284 10.213028l0 0c4.1062927 1.086174 7.5267563 3.8473892 9.37764 7.5702286c1.8508835 3.7228394 1.9506302 8.042099 0.2734604 11.841827l0 0c4.043503 5.103447 4.98938 11.903725 2.484642 17.86309c-2.5047302 5.959381 -8.083771 10.18251 -14.655121 11.093414c-0.046318054 5.5930786 -3.2094193 10.72522 -8.270111 13.418274c-5.060692 2.6930542 -11.228729 2.5264893 -16.12667 -0.43548584c-2.0862656 6.6986694 -7.958412 11.627502 -15.079445 12.657043c-7.1210403 1.0295258 -14.214382 -2.0247803 -18.215446 -7.843384c-4.9044685 2.8680115 -10.789425 3.6941833 -16.327337 2.2921753c-5.5379124 -1.402008 -10.262299 -4.9141235 -13.1074295 -9.744064l0 0c-5.011751 0.56874084 -9.857422 -1.9493103 -12.132124 -6.3044586c-2.2747014 -4.3551483 -1.4942036 -9.620285 1.9541345 -13.182327l0 0c-4.4706116 -2.5516815 -6.751787 -7.6150665 -5.653983 -12.549805c1.0978041 -4.934723 5.3258214 -8.622574 10.479307 -9.140472z" fill-rule="nonzero"></path><path fill="#000000" fill-opacity="0.0" d="m7.6686535 146.28496l0 0c2.1096954 1.2041473 4.5468884 1.7503815 6.9843454 1.5653534m3.192546 17.921875c1.0481968 -0.11895752 2.0756283 -0.3708496 3.0557976 -0.7491913m26.377504 8.20076c-0.737236 -1.0721283 -1.3544846 -2.2177887 -1.8412323 -3.4174652m35.13739 -1.3963928l0 0c0.38036346 -1.221283 0.62680054 -2.4782257 0.7352066 -3.7498932m23.66066 -9.232437c0.049316406 -5.9546967 -3.438324 -11.406876 -8.964867 -14.014679m21.135223 -14.941185c-0.8950043 2.027687 -2.2613297 3.8264236 -3.9918442 5.255165m-5.6584167 -24.667755l0 0c0.15249634 0.81882477 0.22307587 1.6499557 0.2107544 2.4818726m-23.605743 -8.560585l0 0c-0.8360672 0.95402527 -1.5248718 2.0201416 -2.0449677 3.1651459m-18.295033 -1.2973404l0 0c-0.445549 0.8665314 -0.77825546 1.7834778 -0.9904556 2.7297058m-22.310791 0.74664307l0 0c1.3008728 0.7388458 2.5043602 1.6281128 3.5840187 2.648285m-31.445705 15.358055l0 0c0.13236427 0.94330597 0.34150696 1.8749771 0.6254692 2.7863007" fill-rule="nonzero"></path><path stroke="#ffffff" stroke-width="1.0" stroke-linejoin="round" stroke-linecap="butt" d="m12.593044 124.330894l0 0c-0.960372 -6.8441544 2.1927214 -13.619453 8.121307 -17.450882c5.928587 -3.8314362 13.592918 -4.0470505 19.740738 -0.5553589l0 0c2.1777458 -3.979477 6.1636543 -6.727028 10.752071 -7.4115753c4.5884132 -0.6845474 9.240406 0.77430725 12.548836 3.935295l0 0c1.8551636 -3.6080475 5.497795 -6.032196 9.635315 -6.4122314c4.13752 -0.38002777 8.184357 1.3378372 10.704491 4.5440063l0 0c3.351616 -3.8245163 8.68412 -5.434799 13.690109 -4.1340637c5.005989 1.3007355 8.786346 5.278862 9.705284 10.213028l0 0c4.1062927 1.086174 7.5267563 3.8473892 9.37764 7.5702286c1.8508835 3.7228394 1.9506302 8.042099 0.2734604 11.841827l0 0c4.043503 5.103447 4.98938 11.903725 2.484642 17.86309c-2.5047302 5.959381 -8.083771 10.18251 -14.655121 11.093414c-0.046318054 5.5930786 -3.2094193 10.72522 -8.270111 13.418274c-5.060692 2.6930542 -11.228729 2.5264893 -16.12667 -0.43548584c-2.0862656 6.6986694 -7.958412 11.627502 -15.079445 12.657043c-7.1210403 1.0295258 -14.214382 -2.0247803 -18.215446 -7.843384c-4.9044685 2.8680115 -10.789425 3.6941833 -16.327337 2.2921753c-5.5379124 -1.402008 -10.262299 -4.9141235 -13.1074295 -9.744064l0 0c-5.011751 0.56874084 -9.857422 -1.9493103 -12.132124 -6.3044586c-2.2747014 -4.3551483 -1.4942036 -9.620285 1.9541345 -13.182327l0 0c-4.4706116 -2.5516815 -6.751787 -7.6150665 -5.653983 -12.549805c1.0978041 -4.934723 5.3258214 -8.622574 10.479307 -9.140472z" fill-rule="nonzero"></path><path stroke="#ffffff" stroke-width="1.0" stroke-linejoin="round" stroke-linecap="butt" d="m7.6686535 146.28496l0 0c2.1096954 1.2041473 4.5468884 1.7503815 6.9843454 1.5653534m3.192546 17.921875c1.0481968 -0.11895752 2.0756283 -0.3708496 3.0557976 -0.7491913m26.377504 8.20076c-0.737236 -1.0721283 -1.3544846 -2.2177887 -1.8412323 -3.4174652m35.13739 -1.3963928l0 0c0.38036346 -1.221283 0.62680054 -2.4782257 0.7352066 -3.7498932m23.66066 -9.232437c0.049316406 -5.9546967 -3.438324 -11.406876 -8.964867 -14.014679m21.135223 -14.941185c-0.8950043 2.027687 -2.2613297 3.8264236 -3.9918442 5.255165m-5.6584167 -24.667755l0 0c0.15249634 0.81882477 0.22307587 1.6499557 0.2107544 2.4818726m-23.605743 -8.560585l0 0c-0.8360672 0.95402527 -1.5248718 2.0201416 -2.0449677 3.1651459m-18.295033 -1.2973404l0 0c-0.445549 0.8665314 -0.77825546 1.7834778 -0.9904556 2.7297058m-22.310791 0.74664307l0 0c1.3008728 0.7388458 2.5043602 1.6281128 3.5840187 2.648285m-31.445705 15.358055l0 0c0.13236427 0.94330597 0.34150696 1.8749771 0.6254692 2.7863007" fill-rule="nonzero"></path></g></svg>

