<?xml version="1.0" standalone="yes"?>

<svg version="1.1" viewBox="0.0 0.0 376.0 100.0" fill="none" stroke="none" stroke-linecap="square" stroke-miterlimit="10" xmlns="http://www.w3.org/2000/svg" xmlns:xlink="http://www.w3.org/1999/xlink"><clipPath id="p.0"><path d="m0 0l376.0 0l0 100.0l-376.0 0l0 -100.0z" clip-rule="nonzero"></path></clipPath><g clip-path="url(#p.0)"><path fill="#000000" fill-opacity="0.0" d="m0 0l376.3727 0l0 100.0l-376.3727 0z" fill-rule="nonzero"></path><path fill="#000000" fill-opacity="0.0" d="m-4.577428 21.51963l589.98425 0l0 136.94489l-589.98425 0z" fill-rule="nonzero"></path><path fill="#a3aaff" d="m53.016323 43.079002q3.5625 1.28125 3.5625 3.390625q0 0.6875 -0.640625 2.609375l-10.171875 29.40625q-0.109375 0.375 -0.375 0.90625q-0.265625 0.53125 -1.40625 1.40625q-1.140625 0.875 -2.703125 0.875q-1.5625 0 -2.703125 -0.875q-1.140625 -0.875 -1.515625 -1.734375l-6.1875 -18.28125q-5.890625 17.390625 -6.0 17.703125q-0.09375 0.3125 -0.46875 0.90625q-0.375 0.578125 -0.84375 1.0625q-1.234375 1.21875 -2.9375 1.21875q-1.6875 0 -2.78125 -0.796875q-1.078125 -0.796875 -1.4375 -1.59375l-0.375 -0.796875l-10.234376 -29.40625q-0.578125 -1.75 -0.578125 -2.609375q0 -2.109375 3.546875 -3.328125q1.546875 -0.53125 2.78125 -0.53125q1.25 0 1.90625 0.84375q0.671875 0.84375 1.203125 2.59375l5.828126 17.703125l5.78125 -17.4375q0.734375 -2.21875 2.6875 -3.078125q0.859375 -0.359375 2.203125 -0.359375q1.359375 0 2.515625 0.875q1.171875 0.875 1.484375 1.71875l6.09375 18.390625l5.84375 -17.8125q0.421875 -1.21875 0.6875 -1.796875q0.265625 -0.578125 0.96875 -1.140625q0.71875 -0.5625 1.78125 -0.5625q1.0625 0 2.484375 0.53125zm33.727825 21.34375q0 3.25 -1.625 4.8125q-1.609375 1.5625 -3.578125 1.5625l-12.5625 0q0 1.484375 1.75 2.5q1.75 1.0 3.5 1.0q3.078125 0 4.828125 -0.640625l0.578125 -0.203125q1.28125 -0.578125 2.125 -0.578125q1.703125 0 2.921875 2.375q0.6875 1.4375 0.6875 2.4375q0 4.71875 -11.296875 4.71875q-3.921875 0 -6.96875 -1.34375q-3.046875 -1.359375 -4.749996 -3.578125q-3.328125 -4.296875 -3.328125 -9.59375q0 -6.6875 4.3125 -10.6875q4.328121 -4.0 10.796871 -4.0q7.359375 0 10.796875 5.203125q1.8125 2.75 1.8125 6.015625zm-11.1875 1.5625q2.015625 0 2.015625 -1.703125q0 -1.21875 -0.9375 -1.953125q-0.921875 -0.75 -2.640625 -0.75q-1.71875 0 -3.421875 1.40625q-1.6875 1.40625 -1.6875 3.0l6.671875 0zm32.947586 -9.234375q0.3125 -2.96875 4.1875 -2.96875q2.0625 0 3.0625 0.328125q1.015625 0.3125 1.40625 1.109375q0.40625 0.796875 0.484375 1.40625q0.078125 0.609375 0.078125 1.828125l0 18.546875q0 1.21875 -0.078125 1.828125q-0.078125 0.609375 -0.453125 1.40625q-0.734375 1.375 -3.625 1.375q-2.890625 0 -3.875 -0.703125q-0.984375 -0.71875 -1.140625 -2.109375q-1.953125 2.8125 -6.546875 2.8125q-4.578125 0 -8.5 -4.1875q-3.921875 -4.1875 -3.921875 -9.71875q0 -5.546875 3.9375 -9.703125q3.953125 -4.15625 8.671875 -4.15625q1.796875 0 3.28125 0.640625q1.484375 0.625 2.0625 1.1875q0.59375 0.546875 0.96875 1.078125zm-9.65625 11.03125q0 1.75 1.375 3.15625q1.390625 1.40625 3.34375 1.40625q1.96875 0 3.265625 -1.4375q1.296875 -1.4375 1.296875 -3.15625q0 -1.71875 -1.25 -3.203125q-1.234375 -1.484375 -3.328125 -1.484375q-2.09375 0 -3.40625 1.484375q-1.296875 1.484375 -1.296875 3.234375zm39.533516 -4.609375l-3.453125 -0.21875l0 7.3125q0 1.4375 0.453125 2.078125q0.453125 0.625 1.6875 0.625q1.25 0 1.90625 0.078125q0.671875 0.078125 1.421875 0.515625q1.21875 0.6875 1.21875 3.546875q0 3.34375 -1.484375 4.078125q-0.796875 0.375 -1.40625 0.453125q-0.609375 0.078125 -1.78125 0.078125q-5.515625 0 -8.375 -2.484375q-2.8593826 -2.5 -2.8593826 -8.4375l0 -7.84375q-1.015625 0.15625 -2.1875 0.15625q-1.15625 0 -1.921875 -0.890625q-0.765625 -0.90625 -0.765625 -3.078125q0 -2.171875 0.265625 -3.15625q0.265625 -0.984375 0.734375 -1.40625q0.859375 -0.6875 2.125 -0.6875l1.75 0.21875l0 -5.46875q0 -1.21875 0.078125 -1.796875q0.078125 -0.578125 0.5 -1.265625q0.6875 -1.328125 4.0781326 -1.328125q3.609375 0 4.296875 1.953125q0.265625 0.859375 0.265625 2.703125l0 5.203125q2.328125 -0.21875 3.515625 -0.21875q1.203125 0 1.8125 0.078125q0.609375 0.078125 1.40625 0.515625q1.375 0.6875 1.375 4.078125q0 3.328125 -1.421875 4.078125q-0.796875 0.375 -1.40625 0.453125q-0.609375 0.078125 -1.828125 0.078125zm23.19429 -9.28125q5.296875 0 8.8125 4.03125q3.53125 4.03125 3.53125 9.859375l0 9.328125q0 1.21875 -0.078125 1.828125q-0.078125 0.609375 -0.5 1.40625q-0.6875 1.375 -4.078125 1.375q-3.234375 0 -4.03125 -1.375q-0.421875 -0.796875 -0.5 -1.421875q-0.078125 -0.640625 -0.078125 -1.921875l0 -9.265625q0 -2.1875 -1.21875 -3.40625q-1.21875 -1.21875 -3.109375 -1.21875q-1.875 0 -3.3125 1.140625q-1.421875 1.140625 -1.640625 2.578125l0 10.28125q0 1.21875 -0.078125 1.828125q-0.078125 0.609375 -0.5 1.40625q-0.6875 1.375 -4.078125 1.375q-3.34375 0 -4.078125 -1.4375q-0.375 -0.78125 -0.453125 -1.359375q-0.078125 -0.59375 -0.078125 -1.859375l0 -31.703125q0 -1.21875 0.078125 -1.828125q0.078125 -0.609375 0.453125 -1.34375q0.734375 -1.4375 4.125 -1.4375q3.34375 0 4.03125 1.4375q0.421875 0.78125 0.5 1.390625q0.078125 0.609375 0.078125 1.828125l0 11.71875q2.65625 -3.234375 6.203125 -3.234375zm43.716583 10.53125q0 3.25 -1.625 4.8125q-1.609375 1.5625 -3.578125 1.5625l-12.5625 0q0 1.484375 1.75 2.5q1.75 1.0 3.5 1.0q3.078125 0 4.828125 -0.640625l0.578125 -0.203125q1.28125 -0.578125 2.125 -0.578125q1.703125 0 2.921875 2.375q0.6875 1.4375 0.6875 2.4375q0 4.71875 -11.296875 4.71875q-3.921875 0 -6.96875 -1.34375q-3.046875 -1.359375 -4.75 -3.578125q-3.328125 -4.296875 -3.328125 -9.59375q0 -6.6875 4.3125 -10.6875q4.328125 -4.0 10.796875 -4.0q7.359375 0 10.796875 5.203125q1.8125 2.75 1.8125 6.015625zm-11.1875 1.5625q2.015625 0 2.015625 -1.703125q0 -1.21875 -0.9375 -1.953125q-0.921875 -0.75 -2.640625 -0.75q-1.71875 0 -3.421875 1.40625q-1.6875 1.40625 -1.6875 3.0l6.671875 0zm33.791336 -11.875q1.0 0.3125 1.65625 1.078125q0.671875 0.765625 0.671875 2.46875q0 1.703125 -1.015625 3.71875q-1.0 2.0 -2.90625 2.0q-0.953125 0 -1.828125 -0.421875q-0.875 -0.421875 -2.3125 -0.421875q-1.421875 0 -2.671875 1.015625q-1.234375 1.0 -1.234375 2.4375l0 11.125q0 1.21875 -0.09375 1.828125q-0.078125 0.609375 -0.5 1.40625q-0.796875 1.375 -4.125 1.375q-2.546875 0 -3.65625 -0.90625q-0.859375 -0.734375 -0.953125 -2.28125q0 -0.515625 0 -1.53125l0 -18.59375q0 -1.21875 0.078125 -1.828125q0.078125 -0.625 0.453125 -1.359375q0.734375 -1.4375 4.125 -1.4375q3.1875 0 3.984375 1.21875q0.578125 0.859375 0.578125 1.75q0.265625 -0.359375 0.765625 -0.890625q0.5 -0.53125 2.140625 -1.4375q1.65625 -0.90625 2.890625 -0.90625q1.25 0 2.09375 0.140625q0.859375 0.125 1.859375 0.453125z" fill-rule="nonzero"></path><path fill="#10b2ff" d="m259.0015 42.875877q1.21875 0 1.828125 0.078125q0.609375 0.078125 1.375 0.5q0.765625 0.421875 1.078125 1.4375q0.328125 1.0 0.328125 2.703125q0 1.6875 -0.328125 2.703125q-0.3125 1.0 -1.109375 1.40625q-0.796875 0.390625 -1.40625 0.46875q-0.609375 0.078125 -1.875 0.078125l-16.21875 0l0 5.359375l10.4375 0q1.28125 0 1.890625 0.078125q0.609375 0.078125 1.40625 0.5q1.375 0.796875 1.375 4.1875q0 3.703125 -2.015625 4.390625q-0.84375 0.265625 -2.703125 0.265625l-10.390625 0l0 10.03125q0 1.265625 -0.078125 1.859375q-0.078125 0.578125 -0.5 1.359375q-0.75 1.4375 -4.140625 1.4375q-3.703125 0 -4.34375 -2.015625q-0.3125 -0.84375 -0.3125 -2.703125l0 -29.46875q0 -2.703125 1.0 -3.671875q1.015625 -0.984375 3.8125 -0.984375l20.890625 0zm35.18872 21.546875q0 3.25 -1.625 4.8125q-1.609375 1.5625 -3.578125 1.5625l-12.5625 0q0 1.484375 1.75 2.5q1.75 1.0 3.5 1.0q3.078125 0 4.828125 -0.640625l0.578125 -0.203125q1.28125 -0.578125 2.125 -0.578125q1.703125 0 2.921875 2.375q0.6875 1.4375 0.6875 2.4375q0 4.71875 -11.296875 4.71875q-3.921875 0 -6.96875 -1.34375q-3.046875 -1.359375 -4.75 -3.578125q-3.328125 -4.296875 -3.328125 -9.59375q0 -6.6875 4.3125 -10.6875q4.328125 -4.0 10.796875 -4.0q7.359375 0 10.796875 5.203125q1.8125 2.75 1.8125 6.015625zm-11.1875 1.5625q2.015625 0 2.015625 -1.703125q0 -1.21875 -0.9375 -1.953125q-0.921875 -0.75 -2.640625 -0.75q-1.71875 0 -3.421875 1.40625q-1.6875 1.40625 -1.6875 3.0l6.671875 0zm31.04132 -2.8125l-3.453125 -0.21875l0 7.3125q0 1.4375 0.453125 2.078125q0.453125 0.625 1.6875 0.625q1.25 0 1.90625 0.078125q0.671875 0.078125 1.421875 0.515625q1.21875 0.6875 1.21875 3.546875q0 3.34375 -1.484375 4.078125q-0.796875 0.375 -1.40625 0.453125q-0.609375 0.078125 -1.78125 0.078125q-5.515625 0 -8.375 -2.484375q-2.859375 -2.5 -2.859375 -8.4375l0 -7.84375q-1.015625 0.15625 -2.1875 0.15625q-1.15625 0 -1.921875 -0.890625q-0.765625 -0.90625 -0.765625 -3.078125q0 -2.171875 0.265625 -3.15625q0.265625 -0.984375 0.734375 -1.40625q0.859375 -0.6875 2.125 -0.6875l1.75 0.21875l0 -5.46875q0 -1.21875 0.078125 -1.796875q0.078125 -0.578125 0.5 -1.265625q0.6875 -1.328125 4.078125 -1.328125q3.609375 0 4.296875 1.953125q0.265625 0.859375 0.265625 2.703125l0 5.203125q2.328125 -0.21875 3.515625 -0.21875q1.203125 0 1.8125 0.078125q0.609375 0.078125 1.40625 0.515625q1.375 0.6875 1.375 4.078125q0 3.328125 -1.421875 4.078125q-0.796875 0.375 -1.40625 0.453125q-0.609375 0.078125 -1.828125 0.078125zm16.4599 4.578125q0 2.25 1.484375 3.5q1.484375 1.25 3.15625 1.25q1.671875 0 3.125 -0.984375q1.46875 -0.984375 2.359375 -0.984375q1.59375 0 3.875 2.8125q1.21875 1.53125 1.21875 2.75q0 2.015625 -2.921875 3.765625q-3.015625 2.125 -7.421875 2.125q-4.921875 0 -9.484375 -3.546875q-2.171875 -1.703125 -3.546875 -4.53125q-1.375 -2.84375 -1.375 -6.25q0 -3.421875 1.375 -6.203125q1.375 -2.796875 3.546875 -4.484375q4.40625 -3.5 9.390625 -3.5q2.015625 0 3.921875 0.5625q1.90625 0.546875 2.796875 1.078125l0.859375 0.53125q0.953125 0.640625 1.484375 1.015625q1.375 1.046875 1.375 2.40625q0 1.34375 -1.109375 3.046875q-1.90625 2.921875 -3.65625 2.921875q-1.015625 0 -2.875 -1.171875q-0.953125 -0.90625 -2.734375 -0.90625q-1.765625 0 -3.3125 1.28125q-1.53125 1.265625 -1.53125 3.515625zm34.304993 -13.859375q5.296875 0 8.8125 4.03125q3.53125 4.03125 3.53125 9.859375l0 9.328125q0 1.21875 -0.078125 1.828125q-0.078125 0.609375 -0.5 1.40625q-0.6875 1.375 -4.078125 1.375q-3.234375 0 -4.03125 -1.375q-0.421875 -0.796875 -0.5 -1.421875q-0.078125 -0.640625 -0.078125 -1.921875l0 -9.265625q0 -2.1875 -1.21875 -3.40625q-1.21875 -1.21875 -3.109375 -1.21875q-1.875 0 -3.3125 1.140625q-1.421875 1.140625 -1.640625 2.578125l0 10.28125q0 1.21875 -0.078125 1.828125q-0.078125 0.609375 -0.5 1.40625q-0.6875 1.375 -4.078125 1.375q-3.34375 0 -4.078125 -1.4375q-0.375 -0.78125 -0.453125 -1.359375q-0.078125 -0.59375 -0.078125 -1.859375l0 -31.703125q0 -1.21875 0.078125 -1.828125q0.078125 -0.609375 0.453125 -1.34375q0.734375 -1.4375 4.125 -1.4375q3.34375 0 4.03125 1.4375q0.421875 0.78125 0.5 1.390625q0.078125 0.609375 0.078125 1.828125l0 11.71875q2.65625 -3.234375 6.203125 -3.234375z" fill-rule="nonzero"></path><path fill="#a3aaff" d="m304.3779 14.694548l0 0c-0.46054077 -3.0274668 1.0515137 -6.024476 3.8945007 -7.719286c2.8430176 -1.6948094 6.5183716 -1.7901859 9.466492 -0.2456584l0 0c1.044342 -1.7602954 2.9557495 -2.9756577 5.156067 -3.2784636c2.200348 -0.30280614 4.4311523 0.34250998 6.0177 1.7407525l0 0c0.8896179 -1.5959969 2.6364136 -2.6683028 4.620514 -2.836408c1.9841003 -0.16810513 3.9247437 0.5917814 5.1332397 2.0100124l0 0c1.6072388 -1.6917524 4.164398 -2.4040504 6.564972 -1.8286788c2.4005737 0.5753715 4.2134094 2.3350713 4.6540833 4.517667l0 0c1.9691467 0.48046494 3.609375 1.70187 4.4969482 3.3486443c0.88757324 1.6467743 0.9354248 3.5573711 0.13113403 5.2381554l0 0c1.9390259 2.2574759 2.3926392 5.2655363 1.1914978 7.9016256c-1.2011108 2.6360893 -3.8764954 4.5041656 -7.0277405 4.907095c-0.02218628 2.4740639 -1.539032 4.744236 -3.9658508 5.9354897c-2.4267883 1.1912575 -5.3846436 1.1175766 -7.7333984 -0.1926384c-1.0004578 2.9631195 -3.8163757 5.1433563 -7.231201 5.5987663c-3.4148254 0.4554062 -6.8163757 -0.8956528 -8.735046 -3.469471c-2.3518982 1.2686424 -5.1739807 1.6341019 -7.829651 1.0139275c-2.6556396 -0.6201706 -4.921173 -2.173729 -6.285553 -4.3102226l0 0c-2.4033203 0.25157928 -4.7270203 -0.86226654 -5.8178406 -2.7887363c-1.0908203 -1.9264717 -0.7165222 -4.2554684 0.9371033 -5.8311176l0 0c-2.1438599 -1.1287212 -3.2377625 -3.3684769 -2.7113342 -5.551323c0.52645874 -2.182848 2.553955 -3.8141432 5.0252686 -4.043233z" fill-rule="nonzero"></path><path fill="#000000" fill-opacity="0.0" d="m302.01645 24.405787l0 0c1.0116882 0.5326462 2.18042 0.7742672 3.3493042 0.69242096m1.5309448 7.9276257c0.502655 -0.05261612 0.9953613 -0.16403961 1.4653931 -0.3313942m12.649078 3.627552c-0.35351562 -0.4742508 -0.64953613 -0.9810257 -0.8829346 -1.5116959m16.849823 -0.6176872l0 0c0.18240356 -0.54022217 0.30056763 -1.0962257 0.35253906 -1.6587372m11.346283 -4.083908c0.023620605 -2.6340218 -1.6488342 -5.045761 -4.2990417 -6.1993027m10.135223 -6.6091404c-0.42919922 0.8969345 -1.0844116 1.6925926 -1.9142761 2.3245907m-2.71344 -10.911625l0 0c0.073150635 0.36220217 0.10699463 0.7298484 0.10107422 1.0978427m-11.319916 -3.7867208l0 0c-0.40093994 0.42200804 -0.7312317 0.89359665 -0.98065186 1.4000821m-8.773224 -0.57387114l0 0c-0.21365356 0.3833065 -0.37319946 0.78891087 -0.47494507 1.2074695m-10.698944 0.33027363l0 0c0.6238098 0.32682085 1.2009277 0.7201848 1.718689 1.1714511m-15.079529 6.7935357l0 0c0.06347656 0.41726398 0.16378784 0.8293829 0.29995728 1.232501" fill-rule="nonzero"></path><path stroke="#10b2ff" stroke-width="1.0" stroke-linejoin="round" stroke-linecap="butt" d="m304.3779 14.694548l0 0c-0.46054077 -3.0274668 1.0515137 -6.024476 3.8945007 -7.719286c2.8430176 -1.6948094 6.5183716 -1.7901859 9.466492 -0.2456584l0 0c1.044342 -1.7602954 2.9557495 -2.9756577 5.156067 -3.2784636c2.200348 -0.30280614 4.4311523 0.34250998 6.0177 1.7407525l0 0c0.8896179 -1.5959969 2.6364136 -2.6683028 4.620514 -2.836408c1.9841003 -0.16810513 3.9247437 0.5917814 5.1332397 2.0100124l0 0c1.6072388 -1.6917524 4.164398 -2.4040504 6.564972 -1.8286788c2.4005737 0.5753715 4.2134094 2.3350713 4.6540833 4.517667l0 0c1.9691467 0.48046494 3.609375 1.70187 4.4969482 3.3486443c0.88757324 1.6467743 0.9354248 3.5573711 0.13113403 5.2381554l0 0c1.9390259 2.2574759 2.3926392 5.2655363 1.1914978 7.9016256c-1.2011108 2.6360893 -3.8764954 4.5041656 -7.0277405 4.907095c-0.02218628 2.4740639 -1.539032 4.744236 -3.9658508 5.9354897c-2.4267883 1.1912575 -5.3846436 1.1175766 -7.7333984 -0.1926384c-1.0004578 2.9631195 -3.8163757 5.1433563 -7.231201 5.5987663c-3.4148254 0.4554062 -6.8163757 -0.8956528 -8.735046 -3.469471c-2.3518982 1.2686424 -5.1739807 1.6341019 -7.829651 1.0139275c-2.6556396 -0.6201706 -4.921173 -2.173729 -6.285553 -4.3102226l0 0c-2.4033203 0.25157928 -4.7270203 -0.86226654 -5.8178406 -2.7887363c-1.0908203 -1.9264717 -0.7165222 -4.2554684 0.9371033 -5.8311176l0 0c-2.1438599 -1.1287212 -3.2377625 -3.3684769 -2.7113342 -5.551323c0.52645874 -2.182848 2.553955 -3.8141432 5.0252686 -4.043233z" fill-rule="nonzero"></path><path stroke="#10b2ff" stroke-width="1.0" stroke-linejoin="round" stroke-linecap="butt" d="m302.01645 24.405787l0 0c1.0116882 0.5326462 2.18042 0.7742672 3.3493042 0.69242096m1.5309448 7.9276257c0.502655 -0.05261612 0.9953613 -0.16403961 1.4653931 -0.3313942m12.649078 3.627552c-0.35351562 -0.4742508 -0.64953613 -0.9810257 -0.8829346 -1.5116959m16.849823 -0.6176872l0 0c0.18240356 -0.54022217 0.30056763 -1.0962257 0.35253906 -1.6587372m11.346283 -4.083908c0.023620605 -2.6340218 -1.6488342 -5.045761 -4.2990417 -6.1993027m10.135223 -6.6091404c-0.42919922 0.8969345 -1.0844116 1.6925926 -1.9142761 2.3245907m-2.71344 -10.911625l0 0c0.073150635 0.36220217 0.10699463 0.7298484 0.10107422 1.0978427m-11.319916 -3.7867208l0 0c-0.40093994 0.42200804 -0.7312317 0.89359665 -0.98065186 1.4000821m-8.773224 -0.57387114l0 0c-0.21365356 0.3833065 -0.37319946 0.78891087 -0.47494507 1.2074695m-10.698944 0.33027363l0 0c0.6238098 0.32682085 1.2009277 0.7201848 1.718689 1.1714511m-15.079529 6.7935357l0 0c0.06347656 0.41726398 0.16378784 0.8293829 0.29995728 1.232501" fill-rule="nonzero"></path><path fill="#000000" d="m317.13742 16.010021l0 0c0 -0.79171085 0.5992737 -1.4335184 1.3385315 -1.4335184l0 0c0.35498047 0 0.6954651 0.15103054 0.94647217 0.41986752c0.2510376 0.26883698 0.39205933 0.6334572 0.39205933 1.0136509l0 0c0 0.7917099 -0.5993042 1.4335175 -1.3385315 1.4335175l0 0c-0.7392578 0 -1.3385315 -0.64180756 -1.3385315 -1.4335175z" fill-rule="nonzero"></path><path stroke="#000000" stroke-width="2.0" stroke-linejoin="round" stroke-linecap="butt" d="m317.13742 16.010021l0 0c0 -0.79171085 0.5992737 -1.4335184 1.3385315 -1.4335184l0 0c0.35498047 0 0.6954651 0.15103054 0.94647217 0.41986752c0.2510376 0.26883698 0.39205933 0.6334572 0.39205933 1.0136509l0 0c0 0.7917099 -0.5993042 1.4335175 -1.3385315 1.4335175l0 0c-0.7392578 0 -1.3385315 -0.64180756 -1.3385315 -1.4335175z" fill-rule="nonzero"></path><path fill="#000000" d="m331.71365 13.143747l0 0c0 -0.7917099 0.5993042 -1.4335175 1.3385315 -1.4335175l0 0c0.355011 0 0.6954651 0.15103054 0.9465027 0.41986752c0.25100708 0.26883698 0.3920288 0.6334572 0.3920288 1.01365l0 0c0 0.79171085 -0.5992737 1.4335184 -1.3385315 1.4335184l0 0c-0.7392273 0 -1.3385315 -0.64180756 -1.3385315 -1.4335184z" fill-rule="nonzero"></path><path stroke="#000000" stroke-width="2.0" stroke-linejoin="round" stroke-linecap="butt" d="m331.71365 13.143747l0 0c0 -0.7917099 0.5993042 -1.4335175 1.3385315 -1.4335175l0 0c0.355011 0 0.6954651 0.15103054 0.9465027 0.41986752c0.25100708 0.26883698 0.3920288 0.6334572 0.3920288 1.01365l0 0c0 0.79171085 -0.5992737 1.4335184 -1.3385315 1.4335184l0 0c-0.7392273 0 -1.3385315 -0.64180756 -1.3385315 -1.4335184z" fill-rule="nonzero"></path><path fill="#000000" fill-opacity="0.0" d="m335.04916 20.150087l0 0c-0.2496643 2.4187164 -2.003296 4.380665 -4.787201 5.355919c-2.7839355 0.97525215 -6.3109436 0.8631954 -9.628387 -0.3059063l2.8921814 -7.572212z" fill-rule="nonzero"></path><path fill="#000000" fill-opacity="0.0" d="m335.04916 20.150087l0 0c-0.2496643 2.4187164 -2.003296 4.380665 -4.787201 5.355919c-2.7839355 0.97525215 -6.3109436 0.8631954 -9.628387 -0.3059063" fill-rule="nonzero"></path><path stroke="#000000" stroke-width="1.0" stroke-linejoin="round" stroke-linecap="butt" d="m335.04916 20.150087l0 0c-0.2496643 2.4187164 -2.003296 4.380665 -4.787201 5.355919c-2.7839355 0.97525215 -6.3109436 0.8631954 -9.628387 -0.3059063" fill-rule="nonzero"></path></g></svg>

