<?xml version="1.0" encoding="UTF-8" standalone="no"?>
<svg
   xmlns:dc="http://purl.org/dc/elements/1.1/"
   xmlns:cc="http://creativecommons.org/ns#"
   xmlns:rdf="http://www.w3.org/1999/02/22-rdf-syntax-ns#"
   xmlns:svg="http://www.w3.org/2000/svg"
   xmlns="http://www.w3.org/2000/svg"
   viewBox="0 0 526.57501 525.45001"
   height="525.45001"
   width="526.57501"
   xml:space="preserve"
   version="1.1"
   id="svg2"><metadata
     id="metadata8"><rdf:RDF><cc:Work
         rdf:about=""><dc:format>image/svg+xml</dc:format><dc:type
           rdf:resource="http://purl.org/dc/dcmitype/StillImage" /></cc:Work></rdf:RDF></metadata><defs
     id="defs6"><clipPath
       id="clipPath18"
       clipPathUnits="userSpaceOnUse"><path
         id="path20"
         d="M 0,4203.61 0,0 l 4212.6,0 0,4203.61 -4212.6,0 z" /></clipPath></defs><g
     transform="matrix(1.25,0,0,-1.25,0,525.45)"
     id="g10"><g
       transform="scale(0.1,0.1)"
       id="g12"><g
         id="g14"><g
           clip-path="url(#clipPath18)"
           id="g16"><path
             id="path22"
             style="fill:#333333;fill-opacity:1;fill-rule:nonzero;stroke:none"
             d="m 697.566,3938.93 72.844,72.84 c 16.481,16.47 16.481,43.17 0,59.65 -16.48,16.48 -43.18,16.48 -59.656,0 l -72.84,-72.83 c -16.476,-16.48 -16.476,-43.18 0,-59.66 8.238,-8.24 19.024,-12.36 29.828,-12.36 10.809,0 21.59,4.12 29.824,12.36 z M 191.84,3433.2 l 72.84,72.84 c 16.476,16.48 16.476,43.17 0,59.66 -16.481,16.48 -43.176,16.48 -59.657,0 l -72.835,-72.85 c -16.481,-16.47 -16.481,-43.17 0,-59.65 8.238,-8.24 19.019,-12.36 29.824,-12.36 10.804,0 21.593,4.12 29.828,12.36 z m 710.758,319.11 c 0,23.31 -18.883,42.19 -42.188,42.19 l -103.023,0 c -23.305,0 -42.188,-18.88 -42.188,-42.19 0,-23.3 18.883,-42.19 42.188,-42.19 l 103.023,0 c 23.305,0 42.188,18.89 42.188,42.19 z m -715.203,0 c 0,23.31 -18.883,42.19 -42.192,42.19 l -103.0194,0 C 18.8789,3794.5 0,3775.62 0,3752.31 c 0,-23.3 18.8789,-42.19 42.1836,-42.19 l 103.0194,0 c 23.309,0 42.192,18.89 42.192,42.19 z M 770.41,3433.2 c 16.481,16.48 16.481,43.18 0,59.65 l -72.844,72.85 c -16.476,16.48 -43.171,16.48 -59.652,0 -16.476,-16.49 -16.476,-43.18 0,-59.66 l 72.84,-72.84 c 8.238,-8.24 19.019,-12.36 29.828,-12.36 10.805,0 21.586,4.12 29.828,12.36 z m -505.73,505.73 c 16.476,16.48 16.476,43.18 0,59.66 l -72.84,72.83 c -16.481,16.48 -43.172,16.48 -59.652,0 -16.481,-16.48 -16.481,-43.18 0,-59.65 l 72.835,-72.84 c 8.243,-8.24 19.024,-12.36 29.832,-12.36 10.805,0 21.586,4.12 29.825,12.36 z m 228.804,-595.73 0,103.02 c 0,23.3 -18.879,42.19 -42.183,42.19 -23.313,0 -42.192,-18.89 -42.192,-42.19 l 0,-103.02 c 0,-23.31 18.879,-42.19 42.192,-42.19 23.304,0 42.183,18.88 42.183,42.19 z m 0,715.21 0,103.01 c 0,23.31 -18.879,42.19 -42.183,42.19 -23.313,0 -42.192,-18.88 -42.192,-42.19 l 0,-103.01 c 0,-23.31 18.879,-42.19 42.192,-42.19 23.304,0 42.183,18.88 42.183,42.19 z m 176.942,-306.1 c 0,-121.01 -98.102,-219.13 -219.125,-219.13 -121.008,0 -219.133,98.12 -219.133,219.13 0,121.01 98.125,219.13 219.133,219.13 121.023,0 219.125,-98.12 219.125,-219.13" /><path
             id="path24"
             style="fill:#333333;fill-opacity:1;fill-rule:nonzero;stroke:none"
             d="m 1701.02,3492.03 c 0,-82.19 66.65,-148.83 148.83,-148.83 l 588.11,0 c 82.21,0 148.84,87.36 148.84,169.55 0,72.53 -51.93,149 -120.58,165.99 -24.07,92.22 -107.64,160.37 -207.41,160.37 -76.79,0 -143.95,-40.45 -181.85,-101.09 -22.9,10.34 -48.23,16.25 -74.98,16.25 -76.72,0 -142.29,-47.39 -169.27,-114.47 -74.11,-8.52 -131.69,-71.4 -131.69,-147.77 z m -48.21,0 c 0,30.63 7.16,59.68 19.75,85.7 -11.89,0.93 -24.08,-2.95 -33.17,-12.03 l -72.84,-72.85 c -16.48,-16.47 -16.48,-43.17 0,-59.65 8.24,-8.24 19.02,-12.36 29.83,-12.36 10.8,0 21.58,4.12 29.83,12.36 l 29.09,29.1 c -1.48,9.72 -2.49,19.61 -2.49,29.73 z m -31.05,260.28 c 0,23.31 -18.88,42.19 -42.19,42.19 l -103.02,0 c -23.31,0 -42.19,-18.88 -42.19,-42.19 0,-23.3 18.88,-42.19 42.19,-42.19 l 103.02,0 c 23.31,0 42.19,18.89 42.19,42.19 z m 17.63,186.62 c 8.24,-8.24 19.02,-12.36 29.83,-12.36 10.8,0 21.59,4.12 29.82,12.36 16.48,16.48 16.48,43.18 0,59.66 l -72.83,72.83 c -16.48,16.48 -43.18,16.48 -59.66,0 -16.48,-16.48 -16.48,-43.18 0,-59.65 l 72.84,-72.84 z m 462.71,-12.36 c 10.81,0 21.6,4.12 29.84,12.36 l 72.82,72.84 c 16.48,16.47 16.48,43.17 0,59.65 -16.47,16.48 -43.17,16.48 -59.66,0 l -72.82,-72.83 c -16.48,-16.48 -16.48,-43.18 0,-59.66 8.24,-8.24 19.02,-12.36 29.82,-12.36 z m -216.44,89.65 c 23.31,0 42.19,18.88 42.19,42.19 l 0,103.01 c 0,23.31 -18.88,42.19 -42.19,42.19 -23.31,0 -42.19,-18.88 -42.19,-42.19 l 0,-103.01 c 0,-23.31 18.88,-42.19 42.19,-42.19 z m -219.13,-263.91 c 0,121.01 98.12,219.13 219.13,219.13 94.85,0 175.41,-60.39 205.9,-144.71 -11.51,-9.59 -22.48,-19.92 -32.35,-31.5 -18.64,4.82 -37.78,7.25 -57.23,7.25 -85.43,0 -162.2,-46.29 -202.34,-119.95 -36.51,-9.55 -68.6,-29.26 -93.44,-55.72 -24.93,35.57 -39.67,78.77 -39.67,125.5" /><path
             id="path26"
             style="fill:#333333;fill-opacity:1;fill-rule:nonzero;stroke:none"
             d="m 3915.88,3612.85 c -24.53,60.95 -84.14,104.06 -153.86,104.06 -24.35,0 -47.38,-5.37 -68.19,-14.79 -34.46,55.13 -95.52,91.93 -165.31,91.93 -90.68,0 -166.72,-61.98 -188.52,-145.82 -62.48,-15.44 -109.65,-84.96 -109.65,-150.91 0,-74.69 60.54,-154.12 135.26,-154.12 l 534.69,0 c 74.72,0 135.32,60.57 135.32,135.29 0,69.43 -52.36,126.62 -119.74,134.36 z m 296.72,-48.33 c 0,-63.26 -51.32,-114.58 -114.55,-114.58 l -27.3,0 c 1.5,9.32 2.54,18.81 2.54,28.55 0,80.47 -55.19,149.17 -131.51,167.91 -35.03,66.36 -103.49,108.17 -179.76,108.17 -18.46,0 -36.63,-2.47 -54.25,-7.41 -11.77,14.26 -25.09,26.79 -39.5,37.71 29.71,28.93 70.15,46.85 114.88,46.85 59.14,0 110.84,-31.15 140.03,-77.83 17.61,7.96 37.15,12.5 57.72,12.5 59.05,0 109.52,-36.49 130.29,-88.12 57.07,-6.57 101.41,-54.97 101.41,-113.75 z m -873.68,374.41 c 8.23,-8.24 19.01,-12.36 29.84,-12.36 10.8,0 21.58,4.12 29.81,12.36 16.48,16.48 16.48,43.18 0,59.66 l -72.83,72.83 c -16.49,16.48 -43.19,16.48 -59.66,0 -16.49,-16.48 -16.49,-43.18 0,-59.65 l 72.84,-72.84 z m -17.62,-186.62 c 0,23.31 -18.87,42.19 -42.17,42.19 l -103.03,0 c -23.3,0 -42.19,-18.88 -42.19,-42.19 0,-23.3 18.89,-42.19 42.19,-42.19 l 103.03,0 c 23.3,0 42.17,18.89 42.17,42.19 z m 207.22,89.96 c 37.15,0 72.94,-8.34 105.15,-23.81 l 0.98,0.95 c 35.36,34.46 80.66,55.2 129.15,59.58 -39.73,55.89 -104.85,92.45 -178.59,92.45 -111.03,0 -202.55,-82.68 -216.96,-189.77 43.27,37.97 99.63,60.6 160.27,60.6 z m 273.14,84.3 c 10.78,0 21.57,4.12 29.8,12.36 l 72.84,72.84 c 16.48,16.47 16.48,43.17 0,59.65 -16.48,16.48 -43.17,16.48 -59.66,0 l -72.83,-72.83 c -16.48,-16.48 -16.48,-43.18 0,-59.66 8.23,-8.24 19.02,-12.36 29.85,-12.36 z m -258.64,131.84 0,103.01 c 0,23.31 18.89,42.19 42.19,42.19 23.31,0 42.19,-18.88 42.19,-42.19 l 0,-103.01 c 0,-23.31 -18.88,-42.19 -42.19,-42.19 -23.3,0 -42.19,18.88 -42.19,42.19" /><path
             id="path28"
             style="fill:#333333;fill-opacity:1;fill-rule:nonzero;stroke:none"
             d="m 722.852,2212.48 c -14.739,29.64 -40.348,53.91 -70.79,61.44 -16.757,64.37 -75.124,111.97 -144.781,111.97 -53.586,0 -100.504,-28.25 -126.965,-70.58 -15.984,7.18 -33.683,11.32 -52.355,11.32 -53.606,0 -99.399,-33.07 -118.18,-79.92 -51.746,-5.96 -91.976,-49.86 -91.976,-103.18 0,-57.4 46.543,-103.92 103.91,-103.92 l 72.418,0 c 36.109,83.13 118.461,138.73 211.262,138.73 34.511,0 67.687,-7.69 97.726,-21.75 32.957,31.85 74.84,51.27 119.731,55.89 z m 145.136,-251.95 c -22.953,57.07 -78.746,97.4 -144.027,97.4 -22.766,0 -44.332,-5.04 -63.824,-13.83 -32.25,51.61 -89.41,86.03 -154.742,86.03 -84.868,0 -156.008,-58.01 -176.446,-136.48 -58.457,-14.45 -102.64,-79.52 -102.64,-141.25 0,-69.92 56.711,-144.26 126.629,-144.26 l 500.48,0 c 69.918,0 126.633,56.72 126.633,126.63 0,65 -49.016,118.51 -112.063,125.76 z m 277.722,-45.25 c 0,-59.2 -48.02,-107.23 -107.23,-107.23 l -25.54,0 c 1.44,8.71 2.38,17.62 2.38,26.72 0,75.34 -51.632,139.63 -123.086,157.17 -32.793,62.1 -96.875,101.25 -168.273,101.25 -17.258,0 -34.254,-2.33 -50.781,-6.94 -10.992,13.35 -23.45,25.07 -36.957,35.31 27.8,27.07 65.656,43.84 107.539,43.84 55.343,0 103.75,-29.15 131.05,-72.87 16.504,7.47 34.778,11.72 54.036,11.72 55.273,0 102.522,-34.15 121.972,-82.46 53.39,-6.17 94.89,-51.47 94.89,-106.51" /><path
             id="path30"
             style="fill:#333333;fill-opacity:1;fill-rule:nonzero;stroke:none"
             d="m 2190.4,1705.88 c 18.88,-10.19 41.29,-0.78 50.09,21.09 8.81,21.8 0.72,70.44 -2.3,97.42 -20.2,-12.79 -57.26,-38.77 -66.01,-60.6 -8.81,-21.8 -0.66,-47.74 18.22,-57.91 z m -200.07,-55.75 c 18.85,-10.19 41.29,-0.77 50.09,21.09 8.81,21.81 0.69,70.44 -2.3,97.42 -20.2,-12.78 -57.23,-38.78 -66.04,-60.59 -8.8,-21.81 -0.63,-47.75 18.25,-57.92 z m -200.09,55.75 c 18.89,-10.19 41.3,-0.78 50.1,21.09 8.81,21.8 0.69,70.44 -2.3,97.42 -20.2,-12.79 -57.23,-38.77 -66.04,-60.6 -8.8,-21.8 -0.63,-47.74 18.24,-57.91 z m 328.82,684.34 c -4.07,1.7 -8.27,3.18 -12.55,4.24 -16.76,64.36 -75.12,111.96 -144.79,111.96 -53.58,0 -100.49,-28.24 -126.95,-70.57 -15.99,7.17 -33.7,11.32 -52.36,11.32 -53.61,0 -99.4,-33.08 -118.19,-79.93 -51.74,-5.95 -91.97,-49.86 -91.97,-103.18 0,-55.56 43.72,-100.52 98.55,-103.37 19.41,27.38 44.82,49.88 74.08,63.21 34.02,87.9 118.98,147.3 214.96,147.3 34.52,0 67.64,-7.72 97.66,-21.82 18.12,17.54 39,31.21 61.56,40.84 z m 203.37,-236.83 c -22.93,57.07 -78.73,97.39 -144.04,97.39 -22.74,0 -44.31,-5.04 -63.81,-13.82 -32.25,51.61 -89.41,86.02 -154.74,86.02 -84.86,0 -156.01,-58 -176.45,-136.47 -58.45,-14.45 -102.64,-79.52 -102.64,-141.25 0,-69.92 56.72,-144.26 126.63,-144.26 l 500.5,0 c 69.92,0 126.61,56.71 126.61,126.63 0,65 -49.03,118.51 -112.06,125.76 z m 277.74,-45.25 c 0,-59.2 -48.03,-107.23 -107.25,-107.23 l -25.52,0 c 1.4,8.71 2.35,17.61 2.35,26.72 0,75.33 -51.6,139.63 -123.08,157.16 -32.77,62.11 -96.85,101.26 -168.28,101.26 -17.23,0 -34.22,-2.33 -50.77,-6.95 -10.98,13.35 -23.44,25.08 -36.96,35.32 27.81,27.07 65.65,43.83 107.56,43.83 55.32,0 103.72,-29.14 131.03,-72.86 16.53,7.46 34.8,11.72 54.06,11.72 55.27,0 102.5,-34.16 121.94,-82.46 53.4,-6.17 94.92,-51.47 94.92,-106.51" /><path
             id="path32"
             style="fill:#333333;fill-opacity:1;fill-rule:nonzero;stroke:none"
             d="m 3847.94,1725.11 c 24.15,-11.25 52.83,-0.82 64.09,23.33 11.25,24.11 0.84,77.9 -2.97,107.75 -25.8,-14.15 -73.18,-42.87 -84.43,-67.02 -11.25,-24.11 -0.8,-52.8 23.31,-64.06 z m -184.8,-72.32 c 24.1,-11.25 52.78,-0.83 64.03,23.33 11.25,24.11 0.89,77.91 -2.92,107.76 -25.85,-14.15 -73.21,-42.87 -84.47,-67.03 -11.25,-24.1 -0.8,-52.81 23.36,-64.06 z m -184.85,72.32 c 24.15,-11.25 52.83,-0.82 64.08,23.33 11.25,24.11 0.85,77.9 -2.97,107.75 -25.8,-14.15 -73.16,-42.87 -84.42,-67.02 -11.25,-24.11 -0.81,-52.8 23.31,-64.06 z m -184.81,-72.32 c 24.11,-11.25 52.78,-0.83 64.03,23.33 11.25,24.11 0.9,77.91 -2.92,107.76 -25.84,-14.15 -73.21,-42.87 -84.46,-67.03 -11.26,-24.1 -0.8,-52.81 23.35,-64.06 z m -184.85,72.32 c 24.16,-11.25 52.83,-0.82 64.08,23.33 11.25,24.11 0.85,77.9 -2.97,107.75 -25.8,-14.15 -73.16,-42.87 -84.41,-67.02 -11.26,-24.11 -0.8,-52.8 23.3,-64.06 z m 505.07,665.11 c -4.1,1.7 -8.28,3.18 -12.57,4.24 -16.76,64.36 -75.1,111.96 -144.79,111.96 -53.58,0 -100.48,-28.24 -126.93,-70.57 -16.02,7.17 -33.71,11.32 -52.36,11.32 -53.63,0 -99.4,-33.08 -118.18,-79.93 -51.75,-5.95 -92,-49.86 -92,-103.18 0,-55.56 43.74,-100.52 98.55,-103.37 19.44,27.38 44.82,49.88 74.11,63.21 33.99,87.9 118.97,147.3 214.93,147.3 34.51,0 67.66,-7.72 97.65,-21.82 18.13,17.54 39.04,31.21 61.59,40.84 z m 203.36,-236.83 c -22.93,57.07 -78.73,97.39 -144.04,97.39 -22.73,0 -44.3,-5.04 -63.8,-13.82 -32.24,51.61 -89.41,86.02 -154.76,86.02 -84.85,0 -155.99,-58 -176.42,-136.47 -58.48,-14.45 -102.64,-79.52 -102.64,-141.25 0,-69.92 56.68,-144.26 126.61,-144.26 l 500.49,0 c 69.93,0 126.62,56.71 126.62,126.63 0,65 -49.02,118.51 -112.06,125.76 z m 277.74,-45.25 c 0,-59.2 -48.03,-107.23 -107.26,-107.23 l -25.51,0 c 1.41,8.71 2.35,17.61 2.35,26.72 0,75.33 -51.6,139.63 -123.08,157.16 -32.77,62.11 -96.85,101.26 -168.28,101.26 -17.22,0 -34.23,-2.33 -50.75,-6.95 -11.02,13.35 -23.45,25.08 -36.96,35.32 27.78,27.07 65.63,43.83 107.54,43.83 55.32,0 103.73,-29.14 131.03,-72.86 16.53,7.46 34.8,11.72 54.05,11.72 55.28,0 102.5,-34.16 121.95,-82.46 53.4,-6.17 94.92,-51.47 94.92,-106.51" /><path
             id="path34"
             style="fill:#333333;fill-opacity:1;fill-rule:nonzero;stroke:none"
             d="M 602.871,230.281 481.539,94.3203 654.594,111.082 587.266,0 l 194.007,163.18 -154.98,-14.442 126.613,81.543 -150.035,0 z M 1037.31,95.5391 c 24.14,-11.25 52.81,-0.8203 64.06,23.3319 11.26,24.109 0.88,77.899 -2.94,107.75 -25.83,-14.152 -73.19,-42.871 -84.45,-67.019 -11.25,-24.114 -0.8,-52.813 23.33,-64.0629 z M 852.484,23.2109 c 24.133,-11.25 52.809,-0.8203 64.059,23.3282 11.254,24.1211 0.875,77.9019 -2.938,107.7619 C 887.777,140.148 840.41,111.43 829.156,87.2812 817.906,63.1719 828.355,34.4688 852.484,23.2109 Z M 314.082,47.332 c 24.133,-11.25 52.809,-0.8203 64.059,23.3282 11.254,24.1093 0.875,77.8988 -2.942,107.7498 -25.828,-14.148 -73.191,-42.871 -84.445,-67.019 -11.25,-24.1098 -0.805,-52.809 23.328,-64.059 z M 187.66,143.75 c 24.133,-11.25 52.809,-0.82 64.059,23.328 11.254,24.113 0.875,77.902 -2.942,107.762 -25.824,-14.149 -73.191,-42.879 -84.445,-67.031 -11.25,-24.11 -0.801,-52.809 23.328,-64.059 z m 518.961,592.789 c -4.07,1.691 -8.262,3.18 -12.551,4.231 -16.761,64.371 -75.121,111.98 -144.777,111.98 -53.586,0 -100.504,-28.262 -126.965,-70.59 -15.984,7.192 -33.683,11.328 -52.355,11.328 -53.606,0 -99.399,-33.078 -118.18,-79.918 -51.75,-5.961 -91.981,-49.871 -91.981,-103.191 0,-55.559 43.719,-100.52 98.547,-103.379 19.422,27.391 44.825,49.898 74.086,63.219 34.02,87.91 118.981,147.301 214.961,147.301 34.512,0 67.637,-7.719 97.653,-21.829 18.129,17.539 39.007,31.231 61.562,40.848 z M 910,499.711 c -22.953,57.059 -78.746,97.391 -144.027,97.391 -22.766,0 -44.332,-5.043 -63.825,-13.821 -32.25,51.598 -89.414,86.028 -154.742,86.028 -84.867,0 -156.011,-58.008 -176.445,-136.481 -58.457,-14.449 -102.645,-79.527 -102.645,-141.25 0,-69.918 56.711,-144.258 126.633,-144.258 l 500.481,0 c 69.918,0 126.63,56.711 126.63,126.629 0,65 -49.013,118.5 -112.06,125.762 z m 277.72,-45.25 c 0,-59.199 -48.02,-107.231 -107.23,-107.231 l -25.54,0 c 1.43,8.711 2.37,17.61 2.37,26.719 0,75.332 -51.62,139.633 -123.074,157.16 -32.793,62.102 -96.875,101.25 -168.273,101.25 -17.258,0 -34.254,-2.32 -50.782,-6.937 -10.996,13.348 -23.449,25.066 -36.964,35.308 27.808,27.071 65.66,43.84 107.543,43.84 55.347,0 103.746,-29.148 131.054,-72.859 16.504,7.461 34.774,11.719 54.031,11.719 55.275,0 102.525,-34.16 121.975,-82.461 53.39,-6.168 94.89,-51.469 94.89,-106.508" /><path
             id="path36"
             style="fill:#333333;fill-opacity:1;fill-rule:nonzero;stroke:none"
             d="m 2599.6,119.789 33.25,-47.457 57.72,5.0274 24.48,52.5506 -33.24,47.461 -57.72,-5.031 -24.49,-52.551 z M 2400.73,47.4609 2433.97,0 l 57.72,5.03906 24.49,52.55074 -33.25,47.4612 -57.72,-5.039 -24.48,-52.5511 z m -198.89,72.3281 33.24,-47.457 57.73,5.0274 24.48,52.5506 -33.24,47.461 -57.73,-5.031 -24.48,-52.551 z M 2002.93,47.4609 2036.18,0 l 57.72,5.03906 24.48,52.55074 -33.24,47.4612 -57.72,-5.039 -24.49,-52.5511 z m -198.88,72.3281 33.24,-47.457 57.73,5.0274 24.48,52.5506 -33.24,47.461 -57.72,-5.031 -24.49,-52.551 z m 514.89,616.75 c -4.07,1.691 -8.26,3.18 -12.55,4.231 -16.76,64.371 -75.13,111.98 -144.78,111.98 -53.58,0 -100.5,-28.262 -126.96,-70.59 -15.99,7.192 -33.69,11.328 -52.36,11.328 -53.6,0 -99.39,-33.078 -118.18,-79.918 -51.75,-5.961 -91.98,-49.871 -91.98,-103.191 0,-55.559 43.72,-100.52 98.55,-103.379 19.42,27.391 44.82,49.898 74.08,63.219 34.02,87.91 118.99,147.301 214.96,147.301 34.51,0 67.64,-7.719 97.66,-21.829 18.12,17.539 39,31.231 61.56,40.848 z m 203.38,-236.828 c -22.96,57.059 -78.75,97.391 -144.03,97.391 -22.77,0 -44.33,-5.043 -63.82,-13.821 -32.26,51.598 -89.42,86.028 -154.75,86.028 -84.86,0 -156.01,-58.008 -176.44,-136.481 -58.46,-14.449 -102.65,-79.527 -102.65,-141.25 0,-69.918 56.72,-144.258 126.64,-144.258 l 500.48,0 c 69.91,0 126.63,56.711 126.63,126.629 0,65 -49.01,118.5 -112.06,125.762 z m 277.72,-45.25 c 0,-59.199 -48.02,-107.231 -107.23,-107.231 l -25.54,0 c 1.44,8.711 2.37,17.61 2.37,26.719 0,75.332 -51.63,139.633 -123.07,157.16 -32.8,62.102 -96.88,101.25 -168.28,101.25 -17.26,0 -34.25,-2.32 -50.79,-6.937 -10.98,13.348 -23.44,25.066 -36.95,35.308 27.8,27.071 65.66,43.84 107.54,43.84 55.34,0 103.75,-29.148 131.06,-72.859 16.5,7.461 34.77,11.719 54.02,11.719 55.28,0 102.53,-34.16 121.97,-82.461 53.4,-6.168 94.9,-51.469 94.9,-106.508" /><path
             id="path38"
             style="fill:#333333;fill-opacity:1;fill-rule:nonzero;stroke:none"
             d="m 3867.74,673.121 c -30.56,0 -49.25,18.668 -49.25,49.238 0,-30.57 -18.69,-49.238 -49.25,-49.238 30.56,0 49.25,-18.691 49.25,-49.269 0,30.578 18.69,49.269 49.25,49.269 z m 160.7,85.359 c -26.81,0 -43.22,16.379 -43.22,43.219 0,-26.84 -16.42,-43.219 -43.23,-43.219 26.81,0 43.23,-16.41 43.23,-43.218 0,26.808 16.41,43.218 43.22,43.218 z m -84.37,-237.058 c -45.54,0 -73.36,27.816 -73.36,73.348 0,-45.532 -27.83,-73.348 -73.36,-73.348 45.53,0 73.36,-27.832 73.36,-73.363 0,45.531 27.82,73.363 73.36,73.363 z m 108.71,-160.281 c -55.54,-65.493 -138.28,-107.18 -230.9,-107.18 -167.25,0 -302.82,135.57 -302.82,302.809 0,145.351 102.5,266.71 239.14,295.98 -44.78,-52.789 -71.9,-121.012 -71.9,-195.641 0,-167.25 135.58,-302.82 302.83,-302.82 21.84,0 43.1,2.422 63.65,6.852" /></g></g></g></g></svg>